<svg width="120" height="120" viewBox="0 0 120 120" fill="none" xmlns="http://www.w3.org/2000/svg">
<g clip-path="url(#clip0_324_2534)">
<path fill-rule="evenodd" clip-rule="evenodd" d="M1.3915 14.2552C-0.5815 16.2282 -0.0815001 21.8672 2.1915 23.2872C5.1205 25.1162 5.1205 34.5792 2.1915 35.3452C0.5935 35.7632 0.1915 36.7092 0.1915 40.0552C0.1915 43.4012 0.5935 44.3472 2.1915 44.7652C4.0775 45.2582 4.1915 46.1292 4.1915 60.0552C4.1915 73.9812 4.0775 74.8522 2.1915 75.3452C-0.7305 76.1092 -0.7305 84.0012 2.1915 84.7652C5.1205 85.5312 5.1205 94.9942 2.1915 96.8232C-0.5495 98.5352 -0.5775 104.573 2.1485 106.032C5.1475 107.637 116.398 107.355 118.611 105.737C119.973 104.741 120.232 103.108 119.989 97.0332C119.697 89.7032 119.637 89.5492 116.941 89.2392L114.191 88.9222L114.113 72.7392C114.071 63.8382 114.102 48.1812 114.183 37.9462C114.309 21.9002 114.104 19.1102 112.689 17.6962C110.292 15.2992 76.1515 15.2382 73.7625 17.6262C71.7175 19.6722 71.5885 28.6102 73.5935 29.3792C75.6755 30.1782 76.1915 29.1872 76.1915 24.3882V20.0552H81.1915H86.1915V25.4842C86.1915 32.0742 87.8095 34.0552 93.1915 34.0552C98.5735 34.0552 100.191 32.0742 100.191 25.4842V20.0552H105.215H110.239L109.965 36.8052L109.691 53.5552H93.1915H76.6915L76.4045 43.7392C76.1515 35.0952 75.9125 33.9622 74.4045 34.2542C72.9025 34.5452 72.6745 36.1612 72.5545 47.3742C72.4785 54.4082 72.1715 60.4092 71.8705 60.7092C71.5695 61.0102 69.4945 59.7852 67.2575 57.9882C63.5675 55.0222 63.1915 54.2962 63.1915 50.1282C63.1915 46.6192 63.6635 45.2422 65.1915 44.2872C68.1625 42.4322 67.6775 35.0552 64.5845 35.0552C63.5635 35.0552 63.1915 33.5952 63.1915 29.5902C63.1915 25.1492 63.5665 23.9252 65.1915 23.0552C67.9285 21.5902 67.9725 15.5442 65.2575 14.0902C62.3535 12.5362 2.9565 12.6902 1.3915 14.2552ZM63.1915 18.5552C63.1915 19.8542 59.2475 20.0552 33.6915 20.0552C8.1355 20.0552 4.1915 19.8542 4.1915 18.5552C4.1915 17.2562 8.1355 17.0552 33.6915 17.0552C59.2475 17.0552 63.1915 17.2562 63.1915 18.5552ZM96.1915 25.0552C96.1915 29.9442 96.1245 30.0552 93.1915 30.0552C90.2585 30.0552 90.1915 29.9442 90.1915 25.0552C90.1915 20.1662 90.2585 20.0552 93.1915 20.0552C96.1245 20.0552 96.1915 20.1662 96.1915 25.0552ZM59.1915 29.5552V35.0552H33.6915H8.1915V29.5552V24.0552H33.6915H59.1915V29.5552ZM63.1915 40.0552C63.1915 40.6992 52.6915 41.0552 33.6915 41.0552C14.6915 41.0552 4.1915 40.6992 4.1915 40.0552C4.1915 39.4112 14.6915 39.0552 33.6915 39.0552C52.6915 39.0552 63.1915 39.4112 63.1915 40.0552ZM79.8855 41.6942C78.6755 42.9052 80.3155 44.0552 83.2505 44.0552C85.1985 44.0552 86.1915 43.5482 86.1915 42.5552C86.1915 41.0432 81.2165 40.3642 79.8855 41.6942ZM59.1915 49.5552C59.1915 53.6132 58.9605 54.0552 56.8395 54.0552C54.2155 54.0552 48.4555 57.6282 46.8075 60.2772C46.0265 61.5342 46.0685 62.3322 46.9625 63.2262C47.9295 64.1932 48.8725 63.8082 51.4395 61.3982C53.2285 59.7182 55.5075 58.0572 56.5045 57.7072C60.7175 56.2262 67.5835 62.5022 73.5055 73.2472C77.0065 79.6012 83.4825 95.2052 84.7335 100.305L85.4085 103.055H78.8355C73.1925 103.055 72.1035 102.759 71.1445 100.967C69.2645 97.4542 63.0075 91.0112 59.9305 89.4202C58.3295 88.5922 55.2645 88.0412 53.1205 88.1962C49.9265 88.4272 48.6335 87.9212 45.9575 85.3982C44.1605 83.7042 41.8845 81.8932 40.8975 81.3722C39.2265 80.4912 39.3145 80.0252 42.1865 74.5642C45.2645 68.7132 45.5265 65.6062 42.8545 66.6312C42.0775 66.9292 40.6505 68.9282 39.6835 71.0732L37.9245 74.9732L30.8085 75.2642C25.2785 75.4902 23.6915 75.8892 23.6915 77.0552C23.6915 78.1812 25.1335 78.6302 29.4695 78.8562C32.7905 79.0292 34.9975 79.5602 34.6605 80.1062C33.8805 81.3682 4.1915 81.3612 4.1915 80.0992C4.1915 79.5732 7.4535 79.0102 11.4415 78.8492C17.0885 78.6202 18.6915 78.2232 18.6915 77.0552C18.6915 75.9512 17.3075 75.4752 13.4415 75.2532L8.1915 74.9502V60.0032V45.0552H33.6915H59.1915V49.5552ZM79.6735 47.0852C79.2845 47.7142 79.4145 48.6782 79.9635 49.2272C81.4195 50.6832 85.6915 49.8092 85.6915 48.0552C85.6915 46.2412 80.6925 45.4352 79.6735 47.0852ZM19.4665 52.3052C18.9325 52.9932 17.4555 55.4482 16.1845 57.7612C13.0355 63.4902 14.3435 65.0552 22.2785 65.0552C30.2175 65.0552 31.1615 63.3312 27.1095 56.2362C24.1355 51.0282 21.5065 49.6762 19.4665 52.3052ZM24.0095 58.5552C25.0855 60.9172 24.9845 61.0552 22.1705 61.0552C18.8805 61.0552 18.7205 60.8032 20.2265 57.9892C21.6125 55.3992 22.6415 55.5532 24.0095 58.5552ZM86.1915 59.0552C86.1915 60.7882 85.5245 61.0552 81.1915 61.0552C77.6915 61.0552 76.1915 60.6552 76.1915 59.7222C76.1915 57.5642 77.2725 57.0552 81.8585 57.0552C85.5245 57.0552 86.1915 57.3632 86.1915 59.0552ZM96.1915 62.0552C96.1915 65.8332 95.8245 67.0552 94.6915 67.0552C93.8665 67.0552 93.1915 66.2102 93.1915 65.1772C93.1915 64.1452 92.5165 62.7402 91.6915 62.0552C90.8665 61.3702 90.1915 59.9652 90.1915 58.9332C90.1915 57.5132 90.9235 57.0552 93.1915 57.0552C96.1245 57.0552 96.1915 57.1662 96.1915 62.0552ZM109.966 73.3052L110.243 89.0552H106.716H103.191V83.2552C103.191 76.4522 102.135 75.0552 96.9915 75.0552C93.8585 75.0552 93.1915 74.7042 93.1915 73.0552C93.1915 71.6352 93.8585 71.0552 95.4915 71.0552C99.0895 71.0552 100.191 69.1202 100.191 62.8002V56.9452L104.941 57.2502L109.691 57.5552L109.966 73.3052ZM58.1915 62.5552C58.1915 63.3802 58.8665 64.0552 59.6915 64.0552C60.5165 64.0552 61.1915 63.3802 61.1915 62.5552C61.1915 61.7302 60.5165 61.0552 59.6915 61.0552C58.8665 61.0552 58.1915 61.7302 58.1915 62.5552ZM89.1915 70.0552V75.0552L83.9415 75.0282C78.7375 75.0002 78.6715 74.9612 76.4415 70.5392C75.2045 68.0852 74.1915 65.8472 74.1915 65.5662C74.1915 65.2852 77.5665 65.0552 81.6915 65.0552H89.1915V70.0552ZM14.1915 69.4482C14.1915 71.3642 16.4325 72.0552 22.6505 72.0552C27.6235 72.0552 31.1445 70.3412 29.5165 68.7132C29.1545 68.3512 25.5585 68.0552 21.5245 68.0552C15.9235 68.0552 14.1915 68.3842 14.1915 69.4482ZM57.8305 77.7492C56.6355 78.9442 57.1855 81.0552 58.6915 81.0552C59.5165 81.0552 60.1915 80.4072 60.1915 79.6142C60.1915 77.9432 58.7645 76.8162 57.8305 77.7492ZM99.1915 84.0552V89.0552H92.1555H85.1205L83.1555 84.4722C82.0755 81.9512 81.1915 79.7012 81.1915 79.4722C81.1915 79.2432 85.2415 79.0552 90.1915 79.0552H99.1915V84.0552ZM50.6375 81.1422C49.6075 82.8102 51.9245 84.7222 53.3045 83.3422C54.4585 82.1882 53.7365 80.0552 52.1915 80.0552C51.7065 80.0552 51.0075 80.5442 50.6375 81.1422ZM39.9935 85.4532C41.4805 86.2212 43.5265 87.7682 44.5425 88.8902C46.3465 90.8842 46.3285 90.9932 43.7445 93.7422C42.2895 95.2892 40.1835 98.0182 39.0645 99.8052C37.0315 103.05 37.0155 103.055 28.6685 103.055C24.0715 103.055 20.0575 102.647 19.7485 102.148C18.8505 100.693 27.3695 88.8042 31.0895 86.3222C35.0495 83.6802 36.3245 83.5552 39.9935 85.4532ZM25.0245 85.8052C24.8415 86.2172 23.1425 88.6932 21.2485 91.3052C17.9655 95.8362 17.5845 96.0552 12.9985 96.0552H8.1915V90.5552V85.0552H16.7745C21.4955 85.0552 25.2085 85.3932 25.0245 85.8052ZM62.8625 96.5732C65.2435 99.0572 67.1915 101.532 67.1915 102.073C67.1915 102.663 62.2095 103.055 54.6915 103.055C47.1735 103.055 42.1915 102.663 42.1915 102.073C42.1915 101.532 44.1395 99.0572 46.5205 96.5732C50.1825 92.7502 51.4405 92.0552 54.6915 92.0552C57.9425 92.0552 59.2005 92.7502 62.8625 96.5732ZM71.1915 94.5552C71.1915 95.3882 72.0805 96.0552 73.1915 96.0552C74.3025 96.0552 75.1915 95.3882 75.1915 94.5552C75.1915 93.7222 74.3025 93.0552 73.1915 93.0552C72.0805 93.0552 71.1915 93.7222 71.1915 94.5552ZM91.1915 98.0552C91.1915 104.081 90.1215 104.475 88.4345 99.0712C86.7675 93.7282 86.8525 93.0552 89.1915 93.0552C90.9245 93.0552 91.1915 93.7222 91.1915 98.0552ZM116.191 98.0552V103.055H105.691H95.1915V98.0552V93.0552H105.691H116.191V98.0552ZM25.3685 97.6082C25.8205 99.7802 27.5955 99.9132 28.0015 97.8052C28.2115 96.7102 27.7215 96.0552 26.6915 96.0552C25.7305 96.0552 25.1795 96.7022 25.3685 97.6082ZM50.3135 97.4082C49.0975 98.8732 49.7875 100.055 51.8585 100.055C53.3475 100.055 53.6835 97.4772 52.3045 96.6252C51.8175 96.3242 50.9215 96.6762 50.3135 97.4082ZM30.1915 99.5552C30.1915 100.38 30.8665 101.055 31.6915 101.055C32.5165 101.055 33.1915 100.38 33.1915 99.5552C33.1915 98.7302 32.5165 98.0552 31.6915 98.0552C30.8665 98.0552 30.1915 98.7302 30.1915 99.5552ZM15.1915 101.555C15.1915 102.707 13.9135 103.055 9.6915 103.055C5.4695 103.055 4.1915 102.707 4.1915 101.555C4.1915 100.403 5.4695 100.055 9.6915 100.055C13.9135 100.055 15.1915 100.403 15.1915 101.555Z" fill="#A1B1BE"/>
</g>
<defs>
<clipPath id="clip0_324_2534">
<rect width="120" height="120" fill="white"/>
</clipPath>
</defs>
</svg>
