<svg width="120" height="120" viewBox="0 0 120 120" fill="none" xmlns="http://www.w3.org/2000/svg">
<path d="M77.1094 5.71875C71.7188 8.8125 67.125 11.625 66.9375 11.9062C66.75 12.1875 66.5625 23.8125 66.5625 37.7344C66.5625 56.8594 66.7031 63.2344 67.125 63.6562C67.5469 64.0781 72.75 64.2188 87.6562 64.2188C102.562 64.2188 107.766 64.0781 108.188 63.6562C108.609 63.2344 108.75 56.8125 108.75 37.6875V12.2344L107.25 11.1094C104.766 9.32812 88.3125 0 87.6094 0C87.2344 0 82.5469 2.57812 77.1094 5.71875ZM96.2812 9.60938L104.484 14.2969L104.531 37.125V60H87.6562H70.7812V37.125L70.8281 14.2969L79.125 9.51562C83.6719 6.89062 87.5625 4.78125 87.75 4.82812C87.9375 4.875 91.7812 7.03125 96.2812 9.60938Z" fill="#A1B1BE"/>
<path d="M85.3136 8.48409C81.423 10.031 80.4855 15.281 83.6261 18.2341C85.8761 20.3903 90.3761 19.9685 92.3449 17.4372C93.5168 16.031 93.5636 12.7497 92.5324 10.7341C91.3605 8.43722 88.0324 7.40597 85.3136 8.48409ZM88.5011 12.6091C89.4855 13.2185 89.0168 15.1872 87.798 15.3747C86.3918 15.5622 85.5011 13.9216 86.5324 12.9372C87.3761 12.0935 87.6574 12.0466 88.5011 12.6091Z" fill="#A1B1BE"/>
<path d="M85.6414 25.2651C85.3602 26.062 84.7977 26.7183 84.4696 26.7183C83.2977 26.7183 80.7196 29.7651 80.1571 31.8276C79.2196 35.3433 80.6727 38.9526 83.6727 40.5933L85.3133 41.4839L85.2664 44.7651V48.0464L84.5164 46.4058C83.2508 43.4995 83.1102 43.3589 82.1727 43.2183C81.6571 43.1245 80.8602 43.4526 80.3914 43.8745C78.7977 45.5151 81.0008 50.812 83.8133 51.9839C84.6571 52.312 85.3602 53.062 85.5008 53.6714C85.9696 55.5933 89.5321 55.7808 89.5321 53.9058C89.5321 53.3901 90.2821 52.5933 91.4071 51.9839C93.9383 50.5308 95.2039 48.4214 95.2039 45.6089C95.2508 41.9995 93.9383 39.7495 90.9383 38.2026C89.5789 37.4995 89.5321 37.312 89.5321 34.4526C89.5321 31.0308 90.0946 30.5151 90.9852 33.1401C91.6883 35.3433 92.2508 36.0933 93.2352 36.0933C94.7352 36.0933 95.2977 35.2964 95.2508 33.2339C95.1571 30.7026 93.4696 28.0776 91.2664 26.9995C90.1883 26.5308 89.5321 25.8276 89.4383 25.1714C89.3446 24.3745 88.9227 24.0933 87.7508 23.9995C86.3914 23.8589 86.1102 23.9995 85.6414 25.2651ZM85.2196 35.0151L85.0321 36.3276L84.4696 35.0151C84.0477 34.0308 84.0477 33.4683 84.5164 32.4839L85.0789 31.1714L85.2196 32.4839C85.3133 33.187 85.3133 34.312 85.2196 35.0151ZM90.9383 45.2339C90.9383 46.0776 90.6102 47.0151 90.2352 47.3433C89.6258 47.8589 89.5321 47.5776 89.5321 45.2339C89.5321 42.8901 89.6258 42.6089 90.2352 43.1245C90.6102 43.4526 90.9383 44.3901 90.9383 45.2339Z" fill="#A1B1BE"/>
<path d="M36.3281 63.0468C32.4844 64.7343 29.2969 66.0937 29.25 66.0937C29.1562 66.0937 29.0156 65.4843 28.8281 64.6875C28.2188 61.9687 27.75 61.875 14.2031 61.875C2.48438 61.875 1.82812 61.9218 0.9375 62.8125C0.046875 63.7031 0 64.3593 0 83.4375C0 102.516 0.046875 103.172 0.9375 104.062C1.82812 104.953 2.48438 105 14.0156 105C20.7188 105 26.5312 104.859 26.9531 104.719C28.0312 104.297 29.0625 102.047 29.0625 99.9843V98.2031L35.5312 96.5156L42 94.8281L50.9062 100.406C55.7812 103.453 60.6094 106.172 61.6406 106.453C62.6719 106.734 64.4531 106.828 65.5781 106.687C68.0625 106.359 117 81.6093 118.641 79.875C120.234 78.1875 120.469 73.7812 119.109 71.5781C117.984 69.75 115.641 68.4375 113.578 68.4375C112.828 68.4375 105.516 70.6406 97.3594 73.3125C89.2031 75.9843 82.4062 78.0468 82.2656 77.9062C82.125 77.7656 82.0312 77.2968 82.0312 76.8281C82.0312 74.8593 79.7812 73.5937 63.9375 66.8437C50.5781 61.125 47.5781 60 45.6562 60C43.875 60 41.8125 60.6562 36.3281 63.0468ZM62.25 70.875C75.5156 76.5 77.8594 77.6718 78.0938 78.6093C78.7031 80.9062 76.4062 83.9062 74.0625 83.9062C73.5 83.9062 69.6094 82.4531 65.3906 80.625C61.1719 78.7968 57.5156 77.3437 57.2344 77.3437C56.2969 77.3437 55.2188 79.5468 55.7344 80.4843C56.4375 81.8437 71.4375 88.125 73.9688 88.125C76.5938 88.125 79.4062 86.625 80.7656 84.6093C81.75 83.0156 82.2656 82.7812 97.4531 77.8125C106.078 74.9531 113.344 72.6562 113.578 72.6562C114.562 72.6562 115.781 74.25 115.781 75.5156C115.781 76.4062 115.406 77.0625 114.75 77.4843C111.328 79.5937 66.0938 102.328 64.875 102.516C63.0938 102.797 63.2344 102.891 52.875 96.4687C48.3281 93.6562 43.9219 91.1718 43.125 90.9375C41.7656 90.5625 38.8125 91.125 30.1406 93.5625L29.0625 93.8437V82.4062V70.9218L36.7031 67.5937C40.875 65.7656 44.8125 64.2656 45.4688 64.2187C46.125 64.2187 53.6719 67.1718 62.25 70.875ZM24.8438 83.2031V100.781H14.2969H3.75V83.2031V65.625H14.2969H24.8438V83.2031Z" fill="#A1B1BE"/>
<path d="M16.0334 69.4683C15.3771 70.1245 15.2834 71.6714 15.8927 72.562C16.1271 72.937 16.924 73.1245 17.8615 73.0308C19.2209 72.8902 19.4552 72.7027 19.5959 71.5777C19.6896 70.8277 19.5021 69.937 19.174 69.562C18.5177 68.7652 16.7834 68.7183 16.0334 69.4683Z" fill="#A1B1BE"/>
</svg>
