<svg width="120" height="120" viewBox="0 0 120 120" fill="none" xmlns="http://www.w3.org/2000/svg">
<path d="M46.6688 7.11026C40.2469 9.92276 34.575 12.4071 34.1532 12.6884C33.4032 13.1571 33.3094 14.2821 33.3094 25.5321C33.3094 38.7978 33.6844 41.7978 35.8407 46.6259C36.4969 48.1259 37.6688 50.2821 38.4188 51.454C40.1063 53.8915 39.7313 54.0321 35.6532 52.2509C33.1219 51.1728 32.7938 50.8915 33.1219 50.0478C33.3094 49.4853 33.5438 47.9853 33.6375 46.7196C33.9188 43.4384 32.9813 42.3603 27.4032 39.9228C22.3407 37.7196 20.3719 37.6259 18.45 39.5478C17.8875 40.1571 13.9032 48.5009 9.63753 58.1571C1.48128 76.579 0.965659 78.2196 2.65316 80.6571C3.45003 81.7821 10.0125 85.0165 12.5907 85.579C14.6063 86.0478 17.1844 84.829 18.3563 82.8603L19.2938 81.2196L21.2625 82.0634C23.0907 82.8603 23.2782 83.0946 24.0282 85.8603C24.825 88.7665 24.825 88.9071 23.9344 90.4071C22.4813 92.8446 21.9657 95.4696 22.4813 97.4384C23.1375 99.829 25.6219 102.22 27.7782 102.595C29.4188 102.829 29.5594 102.97 29.5594 104.329C29.5594 107.845 33.075 111.173 36.825 111.173C37.8563 111.173 38.9813 110.985 39.3563 110.751C39.7782 110.47 40.3875 110.798 41.3719 111.923C42.9657 113.751 45.4032 114.642 47.8407 114.313C49.3875 114.126 49.6688 114.22 50.1375 115.204C51.45 118.11 57.1219 119.235 60.3094 117.22C61.2 116.704 61.9032 116.095 61.9032 115.86C61.9032 115.673 62.7 115.907 63.6375 116.376C66.1219 117.642 69.2625 117.548 71.325 116.142C72.9657 115.017 74.5594 112.485 74.5594 110.985C74.5594 110.47 74.9813 110.235 75.9657 110.235C79.3875 110.235 82.2938 107.751 82.8563 104.376C83.0907 102.876 83.2782 102.735 84.6375 102.735C87.9657 102.735 90.9657 99.2196 90.9657 95.329C90.9657 94.0165 91.1532 93.3603 91.575 93.3603C91.9032 93.3603 92.8875 92.6103 93.7782 91.7196C94.95 90.5009 95.4188 89.5165 95.6532 87.9228C95.8875 85.9071 95.9813 85.7196 98.1844 84.7821C100.434 83.7978 100.528 83.7978 100.997 84.6884C102.309 86.9853 103.997 88.204 105.872 88.204C108.403 88.204 115.247 85.5321 116.888 83.9384C119.138 81.6415 118.856 80.4228 111.544 61.4853C107.888 52.0634 104.606 43.8134 104.231 43.1103C103.528 41.6103 101.419 40.3915 99.6375 40.3915C98.9813 40.3915 96.45 41.1415 93.9657 42.079C88.4344 44.2353 87.4969 45.2196 87.825 48.5946C87.9657 49.8603 88.2 51.3603 88.3875 51.8759C88.6219 52.6728 88.2938 53.0009 86.5125 53.8915C84.1688 55.0165 82.7625 55.1571 80.9344 54.454L79.7157 53.9853L81.3563 51.7353C83.5125 48.7353 85.2938 44.6571 86.0907 40.8603C86.9813 36.7353 87.0282 13.5321 86.1844 12.829C84.6844 11.704 61.0594 1.95401 59.7938 2.00089C59.0438 2.00089 53.1375 4.34464 46.6688 7.11026ZM71.8407 11.2353L82.5282 15.7821V26.329C82.5282 38.4696 82.0594 41.5634 79.4813 46.3915C77.0438 50.9384 75.5438 52.579 74.2313 52.0634C73.2 51.6884 73.2 51.5946 75.45 48.6415C76.7625 46.9071 78.2157 44.2821 78.825 42.4071C79.9032 39.4071 79.95 38.5634 79.95 28.204V17.1884L70.575 13.1103C65.4188 10.8603 60.6844 9.03214 60.0282 9.03214C59.3719 9.03214 54.6375 10.8603 49.4813 13.1103L40.1063 17.1884L39.9657 26.7978C39.8719 32.6103 40.0125 37.5321 40.3407 39.2196C41.0438 42.7821 43.2469 47.329 45.5907 50.0009L47.4188 52.0634L46.2 52.3915C45.1688 52.6259 44.7 52.4384 43.6219 51.1259C41.4188 48.5478 38.9344 43.4384 38.2313 40.0634C37.7625 37.8134 37.5282 33.6884 37.5282 26.329V15.7821L48.6844 11.0009C54.7782 8.37589 60.1219 6.31339 60.4969 6.45401C60.8719 6.59464 65.9813 8.70401 71.8407 11.2353ZM67.8094 16.6259L75.7313 20.0478V29.4228C75.7313 38.0478 75.6375 38.9384 74.6532 41.4696C72.5907 46.5321 68.3719 50.7509 64.0594 51.9228C62.9813 52.2509 61.4813 52.7196 60.6844 53.0946C59.4188 53.6103 58.9032 53.5634 57.0282 52.8603C53.5594 51.5478 49.4344 48.1728 47.4188 45.079C44.5594 40.6728 43.9969 37.8134 44.1844 28.2509L44.325 20.0478L52.0594 16.6728C56.325 14.7978 59.7938 13.2509 59.8407 13.2509C59.8407 13.204 63.4032 14.7509 67.8094 16.6259ZM25.6688 43.8134C27.6844 44.704 29.3719 45.7353 29.4657 46.1103C29.6063 46.8134 14.9344 80.5165 14.1375 81.3134C13.575 81.8759 6.12191 78.3603 6.12191 77.5165C6.12191 76.7665 20.5125 43.8603 21.2625 42.829C21.825 42.1259 21.3563 42.0321 25.6688 43.8134ZM107.184 62.1884C110.888 71.704 113.888 79.9071 113.794 80.4228C113.747 81.0321 112.716 81.6884 110.419 82.6259C106.763 84.079 105.684 84.2665 105.356 83.3759C102.591 76.579 91.9032 48.5946 91.9032 48.1259C91.9032 47.4696 98.6532 44.5634 99.7782 44.7509C100.153 44.7978 103.294 52.204 107.184 62.1884ZM34.1532 56.329C38.0907 58.0165 39.9657 58.0634 46.2 56.7978C50.3719 55.9071 51.825 55.8603 54.4969 56.6103C55.6219 56.9384 49.2938 62.704 44.1375 66.1259C39.4969 69.1728 39.4032 69.2196 39.4032 71.0478C39.4032 72.079 39.9188 72.9228 41.4188 74.3759C44.6063 77.4228 46.4813 78.1259 51.1219 78.079C54.7313 78.0321 55.6688 77.8446 60.9657 75.7821C69.7782 72.4071 69.5907 72.4071 80.4188 78.5478C85.3407 81.3603 89.7938 84.079 90.4032 84.5946C92.2782 86.329 91.2469 89.6103 88.8094 89.6103C88.2469 89.6103 84.6844 87.9228 80.9344 85.8134C73.7157 81.7821 72.4969 81.5009 71.9344 83.8446C71.5125 85.3915 71.8407 85.6259 79.2469 89.8446C85.6688 93.454 86.7469 94.2978 86.7469 95.7509C86.7469 97.0165 85.1532 98.6571 83.8875 98.6103C83.2782 98.6103 78.9657 96.5009 74.3719 93.8759C69.7782 91.2509 65.5125 89.1415 64.9032 89.1415C63.3563 89.1415 62.5594 90.7821 63.45 92.0946C63.825 92.6571 66.9188 94.7196 70.3875 96.6415C77.1375 100.392 78.7782 101.657 78.7782 103.204C78.7782 104.423 77.1844 106.017 75.9188 106.017C74.8875 106.017 68.0907 102.36 64.0594 99.5946C62.325 98.4228 61.2938 98.0478 59.6063 98.0478C57.7313 98.0009 57.3563 97.8134 56.5125 96.5478C55.0125 94.204 53.2782 93.1728 50.7938 93.1728C48.825 93.1259 48.4032 92.9384 47.6063 91.7196C46.2469 89.7509 43.7625 88.204 41.8875 88.204C40.6219 88.204 40.2469 87.9696 39.825 86.8915C38.325 82.9071 33.8719 81.079 29.7 82.8134C27.5907 83.704 27.825 83.7509 27.45 82.1571C27.1219 80.5634 26.2782 79.7665 23.4657 78.3603C22.2938 77.7978 21.2625 77.2353 21.1688 77.1415C21.0282 77.0478 30.5907 54.9228 30.7782 54.9228C30.825 54.9228 32.3719 55.5321 34.1532 56.329ZM75.7313 57.2665C81.0282 59.3759 84.4969 59.6103 87.825 58.0634L90.4032 56.8915L94.8094 68.2353L99.2157 79.5321L96.8719 80.6571C94.575 81.6884 94.4344 81.7353 93.075 80.9384C84.825 76.1103 74.8407 70.5321 73.2 69.7821C70.2 68.4696 67.0594 68.8915 60.0282 71.6103C52.8094 74.3759 49.1063 74.6571 46.2938 72.7353C45.3563 72.079 44.5594 71.4696 44.5594 71.329C44.6063 71.1884 45.9188 70.204 47.5125 69.1259C49.1063 68.0478 52.7157 65.1415 55.4813 62.6571C60.2157 58.4853 62.7938 56.7509 65.6532 55.8134C67.7157 55.1103 71.8875 55.7196 75.7313 57.2665ZM35.3719 87.8759L36.3563 89.1884L34.4813 92.7509C33.45 94.7196 32.2313 96.829 31.7625 97.4384C30.1219 99.5478 26.6063 98.2821 26.6532 95.5634C26.6532 94.204 30.2625 87.454 31.3407 86.7978C32.6532 86.0478 34.3407 86.4696 35.3719 87.8759ZM43.8094 93.9696L44.7938 95.2821L41.9813 100.673C38.5594 107.282 37.2938 108.22 34.8563 105.923C33.3563 104.517 33.4969 103.579 35.7469 99.5009C39.4032 92.7978 39.7313 92.329 41.3719 92.5165C42.3094 92.6103 43.1532 93.1259 43.8094 93.9696ZM52.2938 98.2821C52.95 98.8915 53.4657 99.7353 53.4657 100.157C53.4657 100.579 52.3875 102.923 51.075 105.36C48.4969 110.188 47.3719 110.985 45.3094 109.579C43.3407 108.313 43.4344 107.329 45.6844 102.782C48.5438 97.1103 50.0907 96.0321 52.2938 98.2821ZM61.5282 103.063C62.7 104.095 62.6063 105.595 61.1532 108.501C59.1375 112.532 57.825 113.985 56.2313 113.985C54.9188 113.985 52.9969 112.579 52.9969 111.642C52.9969 111.079 56.6063 103.72 57.3094 102.829C58.0125 102.032 60.4969 102.126 61.5282 103.063ZM68.8875 107.845C70.575 109.438 70.7157 110.798 69.4032 112.11C68.325 113.188 67.1532 113.282 65.5125 112.532L64.3407 112.017L65.6063 109.251C66.2625 107.751 66.9657 106.532 67.1063 106.485C67.2938 106.485 68.0907 107.095 68.8875 107.845Z" fill="#A1B1BE"/>
<path d="M62.4649 26.9373L57.4493 31.9061L55.2462 29.7967C53.2774 27.9217 52.8087 27.7342 50.7462 27.7342C48.8712 27.7342 48.2149 27.9686 47.2306 28.953C45.5899 30.5936 45.2149 32.7967 46.1993 34.953C46.6212 35.8436 48.7306 38.2342 50.8399 40.2967C55.0587 44.328 56.6993 45.0311 59.2306 43.953C61.2931 43.0623 73.9493 30.1717 74.3243 28.5311C75.1212 25.4373 73.0587 22.6248 69.7306 22.2498L67.5274 21.9686L62.4649 26.9373ZM70.1993 27.078C70.2931 27.3123 67.4337 30.4061 63.8712 33.9686L57.4493 40.3905L53.4649 36.4061C50.2306 33.1717 49.6681 32.4217 50.3712 32.1405C50.9806 31.9061 51.9181 32.5155 53.8868 34.4842C55.3399 35.9373 56.9806 37.1092 57.4493 37.1092C58.0118 37.1092 60.5431 34.9998 63.7774 31.7186C68.7931 26.703 69.8243 25.953 70.1993 27.078Z" fill="#A1B1BE"/>
<path d="M22.434 46.0633C21.3559 46.6727 21.3559 48.9695 22.3402 50.0008C22.9027 50.5164 23.5121 50.657 24.3559 50.4695C25.809 50.0945 26.2777 49.4852 26.2777 47.7977C26.2777 45.9227 24.2152 44.9852 22.434 46.0633Z" fill="#A1B1BE"/>
<path d="M95.7461 48.4532C95.418 48.7814 95.1836 49.5782 95.1836 50.2345C95.1836 50.8907 95.418 51.6876 95.7461 52.0157C96.0742 52.3439 96.8711 52.5782 97.5273 52.5782C98.1836 52.5782 98.9805 52.3439 99.3086 52.0157C99.6367 51.6876 99.8711 50.8907 99.8711 50.2345C99.8711 49.5782 99.6367 48.7814 99.3086 48.4532C98.9805 48.1251 98.1836 47.8907 97.5273 47.8907C96.8711 47.8907 96.0742 48.1251 95.7461 48.4532Z" fill="#A1B1BE"/>
</svg>
