<svg width="120" height="120" viewBox="0 0 120 120" fill="none" xmlns="http://www.w3.org/2000/svg">
<path d="M66.8897 1.92188C48.6085 3.84375 32.5772 17.4844 27.6553 35.2969C24.8428 45.4688 25.7335 57.5156 29.9991 66.7969L31.2647 69.6094L17.1085 83.9062C4.07722 97.0781 2.90535 98.3906 2.29597 100.547C-0.329029 109.875 5.71785 118.266 14.9991 118.266C20.5772 118.266 21.1866 117.797 36.5147 102.469L50.2491 88.6875L53.1553 90C64.7803 95.25 79.4053 95.25 91.0772 90.0469C101.343 85.4531 110.577 76.0312 114.655 66.0469C119.155 55.0781 119.577 44.1562 115.968 33.2812C110.202 15.8906 95.1085 3.79688 76.8741 1.875C71.9522 1.35938 72.046 1.35938 66.8897 1.92188ZM82.2647 6.98438C93.9835 9.98438 104.39 18.4219 109.733 29.2969C113.155 36.1875 114.046 40.125 114.046 47.8125C114.046 55.5 113.155 59.4375 109.733 66.3281C101.671 82.6875 83.1553 92.3906 65.8116 89.3438C56.4366 87.7031 48.1866 83.3906 41.9053 76.7344C33.2335 67.6406 28.921 55.0312 30.3741 43.3125C32.7647 24.5625 46.546 9.84375 65.1085 6.32812C69.7491 5.4375 77.3428 5.71875 82.2647 6.98438ZM38.9053 79.8281C40.5928 81.6094 42.9835 83.8125 44.2022 84.7031L46.4991 86.3906L44.1085 88.7812L41.7178 91.1719L35.296 84.75L28.8272 78.2812L31.171 75.9375L33.5147 73.5469L34.6866 75.0938C35.3428 75.9375 37.2178 78.0938 38.9053 79.8281ZM30.2335 103.125C21.2803 112.125 18.2803 114.375 15.5147 114.375C9.23347 114.375 4.54597 108.516 6.13972 102.703C6.65535 100.828 7.8741 99.375 16.3585 90.7969L25.9678 81.0938L32.5772 87.6562L39.1397 94.2188L30.2335 103.125Z" fill="#A1B1BE"/>
<path d="M66.8429 13.6875C66.421 14.25 66.0929 14.9531 66.0929 15.2344C66.0929 15.4688 65.8585 16.4531 65.6241 17.3906C65.2491 18.6562 64.8272 19.2188 63.9835 19.4062C63.3272 19.5938 61.5929 20.25 60.1866 20.9531L57.5616 22.1719L55.0304 20.9531C53.6241 20.25 52.2179 19.6875 51.8897 19.6875C51.1866 19.6875 45.6554 25.2188 45.3741 26.25C45.2335 26.625 45.7022 28.125 46.4054 29.5312L47.7179 32.1094L46.8272 33.75C46.3585 34.6406 45.6554 36.375 45.2335 37.5938C44.4835 39.7031 44.3429 39.8438 41.4835 40.7812C39.8429 41.3438 38.3897 42.0938 38.2491 42.4688C37.6866 43.9219 37.9679 50.4375 38.6241 51.3281C38.9522 51.7969 40.3585 52.5 41.7179 52.9219C44.1554 53.6719 44.2022 53.7188 45.5616 56.9531C47.5304 61.5938 47.5772 61.9219 46.2647 64.5C45.6554 65.7656 45.2335 67.125 45.3741 67.5C45.6085 68.3438 50.0616 73.0312 51.2335 73.6406C51.8429 73.9688 52.7804 73.7812 54.8897 72.8438L57.7022 71.5781L59.9054 72.5625C61.1241 73.125 62.8585 73.875 63.796 74.2031C65.1554 74.7656 65.5304 75.2344 66.046 76.9219C67.2179 80.9062 67.4522 81.0938 72.1397 81.0938C76.921 81.0938 77.3897 80.8125 78.5147 77.0156C79.2179 74.7188 79.2647 74.625 82.1241 73.5938C83.7647 73.0312 85.4991 72.2344 85.9679 71.9062C86.7179 71.3906 87.2335 71.4844 89.6241 72.7031C92.1554 73.9688 92.4366 74.0156 93.6554 73.4062C95.3429 72.5156 99.3741 68.2031 99.3741 67.2656C99.3741 66.8438 98.8116 65.4375 98.1554 64.125L96.9366 61.7344L98.1085 59.1094C98.7647 57.6562 99.4679 55.9219 99.6085 55.2188C99.8897 54.1875 100.452 53.7656 102.89 52.9688C104.53 52.4062 105.983 51.6562 106.124 51.2812C106.265 50.8594 106.405 48.7969 106.405 46.6406C106.405 42.2344 106.358 42.1875 102.421 40.6406C100.03 39.7031 99.6554 39.4219 98.9522 37.5C98.4835 36.3281 97.7804 34.6406 97.3116 33.6562C96.5147 32.0156 96.5147 31.9219 97.6866 29.5781C98.3429 28.2656 98.9054 26.8125 98.9054 26.3438C98.9054 25.4062 93.2804 19.6875 92.3429 19.6875C92.0147 19.6875 90.5616 20.25 89.0616 20.9062L86.3429 22.125L84.5616 21.1875C83.5304 20.6719 81.8897 20.0156 80.8116 19.6875C79.0304 19.1719 78.8429 18.9375 78.046 16.4531C77.6241 15 77.0147 13.5469 76.7804 13.2188C76.4522 12.8438 74.8585 12.6562 71.9054 12.6562C67.921 12.6562 67.4991 12.75 66.8429 13.6875ZM74.2022 19.4062C75.1397 22.3125 75.421 22.5938 78.2804 23.3906C79.4522 23.7188 81.5147 24.6094 82.8272 25.3594C85.8272 27.0469 86.3429 27.0469 88.9679 25.5L91.0304 24.2812L92.3897 25.5938L93.7491 26.9062L92.5772 28.9688C91.1241 31.5938 91.1241 32.25 92.671 35.2969C93.3272 36.6562 94.2647 38.9062 94.6866 40.3125L95.4366 42.8906L98.3429 43.7344L101.249 44.625V46.5938V48.6094L98.8116 49.2656L96.3272 49.9219L95.296 52.9688C94.7335 54.6562 93.7022 57.1875 92.9991 58.6406L91.7804 61.2656L93.046 63.75L94.3116 66.2344L93.0929 67.4531L91.8741 68.625L89.296 67.3594L86.7179 66.0938L83.5304 67.6875C81.796 68.5312 79.4991 69.5156 78.3741 69.8438C75.9835 70.5938 75.7491 70.8281 74.8585 73.8281C74.2491 76.0781 74.1554 76.1719 72.3741 76.3125L70.546 76.4531L69.6085 73.5469C68.671 70.6406 68.671 70.6406 66.0929 69.8438C64.6866 69.4219 62.4366 68.4844 61.0772 67.8281C58.0772 66.2812 57.3272 66.2812 54.6085 67.5938L52.4991 68.625L51.2335 67.3594L49.9679 66.0938L50.9991 63.9844C52.2647 61.3594 52.3116 60.3281 51.1397 58.4062C50.671 57.6094 49.7804 55.5938 49.171 53.9062C47.8116 49.9688 47.7179 49.8281 44.7179 48.8906C42.2335 48.1406 42.1866 48.0938 42.1866 46.3125C42.1866 44.5781 42.2335 44.5312 44.7179 43.8281C47.7179 42.9375 47.9054 42.75 48.9835 39.375C49.4054 37.9688 50.296 35.8594 50.9054 34.7344C52.3116 32.2031 52.3116 31.6875 50.8585 29.1094L49.6397 27.0469L50.9054 25.7344L52.171 24.4219L54.421 25.5938C57.1866 26.9531 57.6085 27 59.7647 25.7344C60.7022 25.1719 62.9522 24.1875 64.7804 23.4844L68.1085 22.2656L69.046 19.5469C69.8897 16.9219 69.9366 16.875 71.671 16.875C73.3585 16.875 73.4522 16.9219 74.2022 19.4062Z" fill="#A1B1BE"/>
<path d="M67.9219 33.8906C65.0156 34.9688 62.8594 36.5625 61.4531 38.5781C59.625 41.2969 59.0625 43.2656 59.0625 46.8281C59.1094 52.0312 61.5469 56.0156 66.3281 58.5C68.25 59.4844 69.3281 59.7188 72.1875 59.7188C75.0469 59.7188 76.125 59.4844 78.0469 58.5C82.9219 55.9688 85.3125 52.0312 85.2656 46.6406C85.2188 42.8906 84.7031 41.2031 82.6875 38.3438C80.625 35.3906 77.1094 33.6562 72.9375 33.4219C70.875 33.3281 68.9531 33.5156 67.9219 33.8906ZM75.375 38.25C80.8594 40.5 82.9219 46.5 79.9219 51.375C78.9844 52.8281 77.8125 54 76.4531 54.7031C67.5938 59.3438 58.7344 48.4219 65.2969 40.9219C68.0156 37.8281 71.9062 36.7969 75.375 38.25Z" fill="#A1B1BE"/>
<path d="M57.7497 14.1556C56.4372 15.4681 57.609 17.5306 59.5778 17.2494C60.984 17.0619 61.7809 15.7025 61.1247 14.6244C60.4684 13.64 58.5465 13.3587 57.7497 14.1556Z" fill="#A1B1BE"/>
<path d="M83.5309 14.1556C82.2184 15.4681 83.3903 17.5306 85.359 17.2494C86.7653 17.0619 87.5622 15.7025 86.9059 14.6244C86.2497 13.64 84.3278 13.3587 83.5309 14.1556Z" fill="#A1B1BE"/>
<path d="M39.7493 31.9219C38.765 32.4844 38.6243 34.2187 39.4681 35.0625C40.3118 35.9062 42.0931 35.7187 42.6556 34.7344C43.2181 33.6094 42.8431 32.4844 41.6712 31.875C40.6868 31.3125 40.7337 31.3125 39.7493 31.9219Z" fill="#A1B1BE"/>
<path d="M102.093 31.9219C101.108 32.4844 100.968 34.2188 101.812 35.0625C102.796 36.0469 104.483 35.7188 105.093 34.4063C105.608 33.3282 105.562 33.0469 104.577 32.2969C103.312 31.2657 103.171 31.2657 102.093 31.9219Z" fill="#A1B1BE"/>
<path d="M39.2343 57.9849C38.7186 58.5005 38.8593 60.2349 39.4686 60.8443C41.0624 62.438 43.6874 60.563 42.6561 58.5943C42.1874 57.6568 39.9374 57.2818 39.2343 57.9849Z" fill="#A1B1BE"/>
<path d="M101.578 57.9849C101.062 58.5005 101.203 60.2349 101.812 60.8443C103.406 62.438 106.031 60.563 105 58.5943C104.531 57.6568 102.281 57.2818 101.578 57.9849Z" fill="#A1B1BE"/>
<path d="M57.7497 76.4994C56.4372 77.8119 57.609 79.8744 59.5778 79.5931C60.984 79.4056 61.7809 78.0462 61.1247 76.9681C60.4684 75.9837 58.5465 75.7025 57.7497 76.4994Z" fill="#A1B1BE"/>
<path d="M83.5309 76.4994C82.2184 77.8119 83.3903 79.8744 85.359 79.5931C86.7653 79.4056 87.5622 78.0462 86.9059 76.9681C86.2497 75.9837 84.3278 75.7025 83.5309 76.4994Z" fill="#A1B1BE"/>
</svg>
