<?xml version="1.0" encoding="UTF-8"?>
<svg width="407.5" height="97.5" version="1.1" viewBox="0 0 407.5 97.5" xml:space="preserve" xmlns="http://www.w3.org/2000/svg">
<g transform="translate(-1.1758 -1.2309)"><g transform="matrix(.95338 0 0 .53745 204.93 60.65)">
<polygon points="213.74 70.855 -213.74 70.855 -213.74 -70.855 -55.745 -70.855 -55.745 -65.855 -208.74 -65.855 -208.74 65.855 208.74 65.855 208.74 -65.855 55.735 -65.855 55.735 -70.855 213.74 -70.855"/>
</g><g transform="translate(203.68 60.703)"><path d="m-163.28-0.46q0-2.1-1.13-3.13-1.13-1.04-3.07-1.19v8.77q1.94-0.15 3.07-1.24 1.13-1.08 1.13-3.21zm-12.3 0q0 2.13 1.11 3.21 1.12 1.09 3.06 1.24v-8.77q-1.94 0.15-3.06 1.19-1.11 1.03-1.11 3.13zm8.1 10.54h-3.93v-2.72q-3.92-0.22-6.18-2.18-2.25-1.96-2.25-5.64 0-3.64 2.25-5.54 2.26-1.9 6.18-2.15v-2.66h3.93v2.66q3.95 0.25 6.2 2.13 2.26 1.88 2.26 5.56 0 3.71-2.26 5.64-2.25 1.93-6.2 2.18z"/><path d="m-148.49 10.08q-0.9 0-1.52-0.11-0.61-0.11-1.05-0.3l0.81-3.95q0.27 0.09 0.58 0.17t0.93 0.08q1.42 0 1.95-0.93l0.27-0.59-6.82-14.89h4.82l2.34 5.87 1.7 4.82h0.13l1.57-4.82 2.13-5.87h4.58l-6.21 15.57q-0.93 2.32-2.4 3.63-1.47 1.32-3.81 1.32z"/><path d="m-124.79 9.7h-4.54v-20.14h4.54v7.76h6.95v-7.76h4.58v20.14h-4.58v-8.4h-6.95z"/><path d="m-90.53 9.7h-10.99v5.81h-4.05l-0.4-6.79v-2.85h0.92q0.34-0.12 0.7-0.54 0.35-0.41 0.72-1.22 0.38-0.8 0.75-2.08t0.71-3.11q0.24-1.33 0.44-2.41 0.21-1.08 0.39-2.14 0.19-1.07 0.39-2.21 0.2-1.15 0.44-2.6h11.96v16.31h2.47v2.85l-0.4 6.79h-4.05zm-7.57-10.19q-0.4 2.04-0.89 3.61-0.5 1.58-1.21 2.75h7.11v-12.48h-3.89q-0.16 0.9-0.28 1.63-0.13 0.72-0.25 1.42-0.12 0.69-0.26 1.42-0.14 0.72-0.33 1.65z"/><path d="m-74.06-0.49-0.49 1.85h4.29l-0.46-1.85q-0.44-1.51-0.84-3.21t-0.8-3.28h-0.13q-0.37 1.61-0.75 3.29-0.39 1.69-0.82 3.2zm-2.66 10.19h-4.63l6.3-20.14h5.47l6.3 20.14h-4.82l-1.23-4.78h-6.15z"/><path d="m-52.49 9.7h-4.08v-20.14h4.98l3.24 8.96q0.31 0.9 0.59 1.84t0.59 1.87h0.12q0.31-0.93 0.57-1.87t0.57-1.84l3.18-8.96h4.95v20.14h-4.14v-7.38q0-0.74 0.06-1.64 0.06-0.89 0.15-1.8 0.1-0.91 0.19-1.8 0.09-0.88 0.18-1.62h-0.12l-1.64 4.79-2.87 7.69h-2.5l-2.87-7.69-1.61-4.79h-0.12q0.09 0.74 0.18 1.62 0.09 0.89 0.19 1.8 0.09 0.91 0.15 1.8 0.06 0.9 0.06 1.64z"/><path d="m-15.61 9.7h-12.91v-20.14h12.6v3.83h-8.06v4.05h6.86v3.8h-6.86v4.63h8.37z"/><path d="m-2.53 9.7h-4.54v-20.14h4.54v7.76h6.95v-7.76h4.57v20.14h-4.57v-8.4h-6.95z"/><path d="m26.76 9.7h-4.57v-16.31h-5.53v-3.83h15.63v3.83h-5.53z"/><path d="m44.54 3.5h-7.6v-3.22h7.6z"/><path d="m61.19 10.08q-1.91 0-3.61-0.67-1.7-0.66-2.98-1.96-1.29-1.3-2.03-3.23t-0.74-4.46q0-2.51 0.77-4.47 0.78-1.96 2.07-3.32 1.3-1.36 3.03-2.07t3.65-0.71q1.94 0 3.49 0.79 1.54 0.79 2.56 1.84l-2.41 2.9q-0.77-0.71-1.62-1.16-0.85-0.44-1.93-0.44-1.02 0-1.93 0.44-0.91 0.45-1.58 1.29-0.66 0.83-1.05 2.03-0.38 1.21-0.38 2.72 0 3.12 1.32 4.84 1.33 1.71 3.56 1.71 1.23 0 2.21-0.54 0.97-0.54 1.71-1.34l2.41 2.84q-2.53 2.97-6.52 2.97z"/><path d="m79.83 9.7h-4.54v-20.14h15.72v20.14h-4.54v-16.31h-6.64z"/><path d="m107.73 9.7h-7.45v-20.14h13.75v3.83h-9.21v4.05h2.78q1.58 0 2.98 0.29 1.41 0.3 2.46 0.99 1.05 0.7 1.67 1.81t0.62 2.78q0 1.73-0.59 2.95t-1.62 1.98q-1.04 0.75-2.43 1.11-1.39 0.35-2.96 0.35zm-2.91-8.92v5.4h2.44q1.83 0 2.72-0.66 0.9-0.67 0.9-2.15 0-1.42-0.93-2.01-0.93-0.58-2.72-0.58z"/><path d="m125.59 10.08q-1.17 0-1.96-0.82t-0.79-2.03q0-1.23 0.79-2.05t1.96-0.82 1.96 0.82 0.79 2.05q0 1.21-0.79 2.03t-1.96 0.82z"/><path d="m141.69 9.7h-4.54v-20.14h6.92q1.67 0 3.12 0.33 1.45 0.32 2.53 1.08t1.71 2.01q0.64 1.25 0.64 3.07 0 1.76-0.64 3.06-0.63 1.3-1.71 2.13t-2.5 1.24q-1.42 0.4-3.03 0.4h-2.5zm0-16.52v6.08h2.22q3.71 0 3.71-3.21 0-1.58-0.99-2.22-0.99-0.65-2.84-0.65z"/><path d="m175.65-0.46q0-2.1-1.13-3.13-1.13-1.04-3.07-1.19v8.77q1.94-0.15 3.07-1.24 1.13-1.08 1.13-3.21zm-12.3 0q0 2.13 1.11 3.21 1.12 1.09 3.06 1.24v-8.77q-1.94 0.15-3.06 1.19-1.11 1.03-1.11 3.13zm8.1 10.54h-3.93v-2.72q-3.92-0.22-6.18-2.18-2.25-1.96-2.25-5.64 0-3.64 2.25-5.54 2.26-1.9 6.18-2.15v-2.66h3.93v2.66q3.95 0.25 6.21 2.13 2.25 1.88 2.25 5.56 0 3.71-2.25 5.64-2.26 1.93-6.21 2.18z"/></g><g transform="matrix(.48829 0 0 .47975 203.35 22.817)">
<path transform="translate(-50 -50.005)" d="m94.295 63.673c0.02-0.055 0.045-0.104 0.06-0.161 0.044-0.165 0.071-0.336 0.071-0.512v-26c0-0.163-0.02-0.322-0.058-0.477-3e-3 -0.013-0.01-0.024-0.014-0.036-0.015-0.055-0.04-0.104-0.059-0.157-0.017-0.044-0.031-0.089-0.05-0.132-0.018-0.038-0.025-0.081-0.045-0.118-0.012-0.022-0.029-0.041-0.042-0.063-0.032-0.057-0.072-0.107-0.11-0.161-0.021-0.03-0.039-0.062-0.062-0.092-0.019-0.024-0.031-0.052-0.051-0.075-0.024-0.028-0.058-0.049-0.084-0.077-0.049-0.05-0.102-0.095-0.155-0.14-0.015-0.013-0.027-0.027-0.043-0.039-0.026-0.021-0.046-0.047-0.073-0.066l-1e-3 -1e-3c-1e-3 0-1e-3 -1e-3 -2e-3 -1e-3l-0.116-0.082-42.307-29.916c-0.033-0.023-0.072-0.032-0.107-0.053-0.044-0.028-0.08-0.066-0.127-0.09-0.06-0.031-0.125-0.042-0.188-0.066-0.076-0.03-0.15-0.06-0.228-0.08-0.112-0.03-0.225-0.042-0.34-0.052-0.077-6e-3 -0.151-0.018-0.228-0.015-0.127 4e-3 -0.251 0.029-0.376 0.058-0.063 0.014-0.126 0.019-0.188 0.039-0.128 0.042-0.249 0.109-0.368 0.179-7e-3 3e-3 -0.014 4e-3 -0.021 7e-3 -6e-3 3e-3 -0.011 9e-3 -0.018 0.013-0.039 0.024-0.082 0.036-0.12 0.062l-42.427 30c-0.53 0.373-0.845 0.982-0.845 1.631l1e-3 26.001c0 0.176 0.027 0.347 0.071 0.513 0.014 0.054 0.04 0.103 0.058 0.155 0.039 0.108 0.081 0.215 0.137 0.314 0.032 0.057 0.072 0.107 0.109 0.161 0.06 0.086 0.124 0.167 0.197 0.243 0.049 0.051 0.101 0.096 0.156 0.141 0.041 0.034 0.073 0.075 0.116 0.105l42.425 29.999c0.034 0.023 0.074 0.032 0.108 0.054 0.044 0.027 0.08 0.065 0.127 0.09 0.07 0.036 0.145 0.054 0.218 0.081 0.054 0.021 0.105 0.044 0.16 0.06 0.179 0.051 0.36 0.083 0.543 0.083 0.404 0 0.809-0.122 1.154-0.367l42.427-30c0.043-0.03 0.075-0.07 0.115-0.104 0.056-0.047 0.109-0.094 0.16-0.146 0.071-0.073 0.133-0.153 0.191-0.236 0.039-0.056 0.08-0.108 0.113-0.167 0.057-0.098 0.097-0.202 0.136-0.307zm-84.722-22.809 12.922 9.137-12.921 9.137zm42.428-8.898-1e-3 -20.977 36.956 26.015-14.915 10.547zm-2.093 3.55 20.622 14.517-7.544 5.334-12.987 9.184-20.576-14.55zm-2.004-24.584 1e-3 21.102-0.577 0.407-21.37 15.111-14.921-10.552 12.736-9.005zm-36.117 51.54 14.172-10.022 22.04 15.585v21.102l-36.961-26.136zm40.212 5.563 22.003-15.559 14.954 10.527-8.624 6.099-28.333 20.035zm25.506-18.035 12.921-9.136v18.273z" stroke-linecap="round" style="fill:#f57336"/>
</g></g>
</svg>
