<svg width="110" height="122" viewBox="0 0 110 122" fill="none" xmlns="http://www.w3.org/2000/svg">
<g clip-path="url(#clip0_324_2425)">
<path d="M108.147 23.7677H106.302V101.546C106.298 103.865 105.39 106.087 103.775 107.726C102.161 109.366 99.9729 110.288 97.69 110.292H84.3526C84.0145 110.291 83.6831 110.388 83.3973 110.571C83.0612 110.784 82.8023 111.101 82.6595 111.476C82.5167 111.851 82.4978 112.262 82.6057 112.649C82.7135 113.036 82.9422 113.376 83.2573 113.619C83.5725 113.862 83.9569 113.995 84.3526 113.996H97.69C100.938 113.985 104.049 112.669 106.346 110.337C108.643 108.005 109.938 104.845 109.949 101.546V22.0039C109.929 22.4765 109.73 22.923 109.395 23.2513C109.06 23.5796 108.613 23.7644 108.147 23.7677Z" fill="#A1B1BE"/>
<path d="M25.553 12.4502C25.5549 10.1326 26.4618 7.91029 28.0749 6.27077C29.6879 4.63125 31.8755 3.70834 34.1577 3.70445H84.4609V1.85239C84.4589 1.60674 84.5055 1.36321 84.5978 1.13615C84.6901 0.909094 84.8263 0.703116 84.9983 0.530446C85.1704 0.357776 85.3748 0.221912 85.5995 0.130858C85.8241 0.0398049 86.0645 -0.00455234 86.3063 0.000368923H34.1577C30.9111 0.0139247 27.8014 1.33016 25.5064 3.66224C23.2114 5.99432 21.9171 9.15318 21.9056 12.4502C21.9056 12.9402 22.0967 13.4101 22.4372 13.7573C22.7776 14.1044 23.2397 14.3003 23.7221 14.3023C24.0609 14.301 24.3922 14.2016 24.6773 14.0157C24.9433 13.853 25.1635 13.6235 25.3169 13.3493C25.4703 13.0752 25.5516 12.7656 25.553 12.4502Z" fill="#A1B1BE"/>
<path d="M109.255 20.4399L87.5442 0.47888C87.4658 0.410601 87.3836 0.346801 87.2982 0.287789L87.2186 0.243694L87.0232 0.148148L86.9291 0.11141C86.8614 0.0826969 86.7911 0.0605754 86.7192 0.0452908H86.6324H86.3357C86.0939 0.0403695 85.8535 0.0847268 85.6288 0.17578C85.4042 0.266834 85.1998 0.402743 85.0278 0.575413C84.8557 0.748083 84.7194 0.954016 84.6271 1.18107C84.5348 1.40813 84.4883 1.65167 84.4903 1.89731V21.9612C84.4922 22.4531 84.6859 22.9241 85.0291 23.2712C85.3722 23.6183 85.8369 23.8132 86.3212 23.8132H108.176C108.645 23.8137 109.095 23.6305 109.434 23.3018C109.772 22.9731 109.972 22.5245 109.993 22.0494C109.993 22.0494 109.993 21.9906 109.993 21.9612C109.999 21.6661 109.935 21.374 109.806 21.1093C109.678 20.8446 109.489 20.615 109.255 20.4399ZM88.116 20.065V6.02035L103.407 20.065H88.116Z" fill="#A1B1BE"/>
<path d="M80.0612 38.3118H78.2302V110.233C78.2283 112.345 77.4012 114.371 75.9305 115.864C74.4597 117.358 72.4655 118.198 70.3855 118.2H11.4994C9.41939 118.198 7.42516 117.358 5.9544 115.864C4.48365 114.371 3.65656 112.345 3.65464 110.233V27.6845C3.65656 25.5729 4.48388 23.5484 5.95485 22.0559C7.42581 20.5635 9.42005 19.7251 11.4994 19.7251H57.9671V17.8657C57.9699 17.5071 58.0736 17.1567 58.2659 16.856C58.4583 16.5552 58.7312 16.3165 59.0526 16.168C59.2821 16.0708 59.5277 16.0184 59.7763 16.0137H11.4994C8.45197 16.0176 5.53038 17.2482 3.37487 19.4358C1.21936 21.6235 0.00574378 24.5897 0 27.6845V110.233C0.00383333 113.328 1.21682 116.296 3.37275 118.484C5.52867 120.672 8.45138 121.902 11.4994 121.904H70.371C73.4184 121.902 76.3403 120.672 78.4951 118.483C80.6499 116.295 81.8612 113.328 81.8632 110.233V36.5479C81.841 37.0199 81.6421 37.4654 81.3071 37.7933C80.9722 38.1212 80.5264 38.3067 80.0612 38.3118Z" fill="#A1B1BE"/>
<path d="M57.9814 17.8659V36.4525C57.9814 36.9456 58.1744 37.4186 58.5178 37.7673C58.8611 38.116 59.3268 38.3119 59.8124 38.3119H80.0755C80.5433 38.3105 80.9926 38.1267 81.3307 37.7984C81.6688 37.4701 81.8697 37.0225 81.892 36.548C81.892 36.548 81.892 36.4892 81.892 36.4525C81.8931 36.167 81.8282 35.8853 81.7025 35.63C81.5768 35.3747 81.3939 35.1529 81.1683 34.9826L61.0281 16.4842C60.951 16.4165 60.8687 16.3551 60.7821 16.3004L60.6953 16.249C60.6346 16.2152 60.5718 16.1857 60.5071 16.1608C60.4747 16.143 60.4408 16.1282 60.4058 16.1167L60.196 16.0579H60.1164C60.0176 16.051 59.9184 16.051 59.8196 16.0579C59.571 16.0626 59.3255 16.115 59.0959 16.2122C58.7756 16.3532 58.5011 16.5832 58.3039 16.8758C58.1067 17.1684 57.9949 17.5116 57.9814 17.8659ZM75.3499 34.6078H61.6722V22.0403L75.3499 34.6078Z" fill="#A1B1BE"/>
<path d="M22.4418 89.0527H65.9352C66.3102 89.0506 66.6757 88.9316 66.9819 88.7118C67.2882 88.4919 67.5207 88.1818 67.6478 87.8234C67.7749 87.4651 67.7904 87.0757 67.6925 86.708C67.5946 86.3403 67.3879 86.012 67.1003 85.7675L23.5997 49.2925C23.3331 49.0677 23.0091 48.9247 22.6655 48.8801C22.3218 48.8356 21.9727 48.8913 21.6592 49.0409C21.3456 49.1905 21.0805 49.4278 20.8949 49.7248C20.7092 50.0219 20.6107 50.3665 20.6108 50.7183V87.2007C20.6108 87.4446 20.6582 87.686 20.7503 87.9112C20.8424 88.1363 20.9775 88.3408 21.1476 88.5129C21.3177 88.685 21.5196 88.8213 21.7417 88.9139C21.9638 89.0065 22.2017 89.0537 22.4418 89.0527ZM24.2655 54.6502L60.8549 85.3487H24.2655V54.6502Z" fill="#A1B1BE"/>
<path d="M10.9203 95.623V100.209C10.9203 100.702 11.1132 101.175 11.4566 101.524C11.8 101.873 12.2656 102.068 12.7512 102.068C13.2368 102.068 13.7025 101.873 14.0459 101.524C14.3892 101.175 14.5822 100.702 14.5822 100.209V97.4825H12.7512C12.2656 97.4825 11.8 97.2865 11.4566 96.9378C11.1132 96.5891 10.9203 96.1162 10.9203 95.623Z" fill="#A1B1BE"/>
<path d="M12.7514 93.7794H14.5823V91.0528C14.5823 90.5596 14.3893 90.0866 14.046 89.7379C13.7026 89.3892 13.2369 89.1934 12.7514 89.1934C12.2658 89.1934 11.8001 89.3892 11.4567 89.7379C11.1134 90.0866 10.9204 90.5596 10.9204 91.0528V95.6241C10.9214 95.3809 10.9695 95.1402 11.062 94.9159C11.1545 94.6915 11.2897 94.488 11.4597 94.3167C11.6297 94.1454 11.8313 94.0097 12.0529 93.9175C12.2746 93.8254 12.5119 93.7784 12.7514 93.7794Z" fill="#A1B1BE"/>
<path d="M51.0772 93.7784H45.5989C45.3421 93.7453 45.0813 93.7682 44.8339 93.8454C44.5865 93.9226 44.358 94.0524 44.1638 94.2262C43.9696 94.4 43.8141 94.6138 43.7076 94.8534C43.601 95.093 43.5459 95.3528 43.5459 95.6157C43.5459 95.8786 43.601 96.1384 43.7076 96.378C43.8141 96.6176 43.9696 96.8314 44.1638 97.0052C44.358 97.179 44.5865 97.3088 44.8339 97.3861C45.0813 97.4633 45.3421 97.4861 45.5989 97.4531H51.0772C51.334 97.4861 51.5948 97.4633 51.8422 97.3861C52.0896 97.3088 52.3181 97.179 52.5123 97.0052C52.7065 96.8314 52.862 96.6176 52.9685 96.378C53.0751 96.1384 53.1302 95.8786 53.1302 95.6157C53.1302 95.3528 53.0751 95.093 52.9685 94.8534C52.862 94.6138 52.7065 94.4 52.5123 94.2262C52.3181 94.0524 52.0896 93.9226 51.8422 93.8454C51.5948 93.7682 51.334 93.7453 51.0772 93.7784Z" fill="#A1B1BE"/>
<path d="M29.1716 93.7784H23.7005C23.4437 93.7453 23.1829 93.7682 22.9355 93.8454C22.6881 93.9226 22.4597 94.0524 22.2655 94.2262C22.0713 94.4 21.9157 94.6138 21.8092 94.8534C21.7026 95.093 21.6476 95.3528 21.6476 95.6157C21.6476 95.8786 21.7026 96.1384 21.8092 96.378C21.9157 96.6176 22.0713 96.8314 22.2655 97.0052C22.4597 97.179 22.6881 97.3088 22.9355 97.3861C23.1829 97.4633 23.4437 97.4861 23.7005 97.4531H29.1716C29.4284 97.4861 29.6891 97.4633 29.9366 97.3861C30.184 97.3088 30.4124 97.179 30.6066 97.0052C30.8008 96.8314 30.9564 96.6176 31.0629 96.378C31.1694 96.1384 31.2246 95.8786 31.2246 95.6157C31.2246 95.3528 31.1694 95.093 31.0629 94.8534C30.9564 94.6138 30.8008 94.4 30.6066 94.2262C30.4124 94.0524 30.184 93.9226 29.9366 93.8454C29.6891 93.7682 29.4284 93.7453 29.1716 93.7784Z" fill="#A1B1BE"/>
<path d="M18.2296 93.7784H12.7513C12.4945 93.7453 12.2337 93.7682 11.9863 93.8454C11.7388 93.9226 11.5105 94.0524 11.3163 94.2262C11.1221 94.4 10.9665 94.6138 10.8599 94.8534C10.7534 95.093 10.6984 95.3528 10.6984 95.6157C10.6984 95.8786 10.7534 96.1384 10.8599 96.378C10.9665 96.6176 11.1221 96.8314 11.3163 97.0052C11.5105 97.179 11.7388 97.3088 11.9863 97.3861C12.2337 97.4633 12.4945 97.4861 12.7513 97.4531H18.2296C18.4864 97.4861 18.7472 97.4633 18.9946 97.3861C19.242 97.3088 19.4704 97.179 19.6646 97.0052C19.8588 96.8314 20.0144 96.6176 20.1209 96.378C20.2275 96.1384 20.2826 95.8786 20.2826 95.6157C20.2826 95.3528 20.2275 95.093 20.1209 94.8534C20.0144 94.6138 19.8588 94.4 19.6646 94.2262C19.4704 94.0524 19.242 93.9226 18.9946 93.8454C18.7472 93.7682 18.4864 93.7453 18.2296 93.7784Z" fill="#A1B1BE"/>
<path d="M68.8949 93.7784H67.5054C67.2486 93.7453 66.9878 93.7682 66.7404 93.8454C66.493 93.9226 66.2645 94.0524 66.0703 94.2262C65.8761 94.4 65.7206 94.6138 65.6141 94.8534C65.5075 95.093 65.4524 95.3528 65.4524 95.6157C65.4524 95.8786 65.5075 96.1384 65.6141 96.378C65.7206 96.6176 65.8761 96.8314 66.0703 97.0052C66.2645 97.179 66.493 97.3088 66.7404 97.3861C66.9878 97.4633 67.2486 97.4861 67.5054 97.4531H68.8949V93.7784Z" fill="#A1B1BE"/>
<path d="M40.1281 93.7784H34.657C34.4002 93.7453 34.1394 93.7682 33.892 93.8454C33.6446 93.9226 33.4161 94.0524 33.2219 94.2262C33.0277 94.4 32.8722 94.6138 32.7657 94.8534C32.6591 95.093 32.604 95.3528 32.604 95.6157C32.604 95.8786 32.6591 96.1384 32.7657 96.378C32.8722 96.6176 33.0277 96.8314 33.2219 97.0052C33.4161 97.179 33.6446 97.3088 33.892 97.3861C34.1394 97.4633 34.4002 97.4861 34.657 97.4531H40.1353C40.3921 97.4861 40.6529 97.4633 40.9003 97.3861C41.1477 97.3088 41.3762 97.179 41.5704 97.0052C41.7646 96.8314 41.9201 96.6176 42.0267 96.378C42.1332 96.1384 42.1883 95.8786 42.1883 95.6157C42.1883 95.3528 42.1332 95.093 42.0267 94.8534C41.9201 94.6138 41.7646 94.4 41.5704 94.2262C41.3762 94.0524 41.1477 93.9226 40.9003 93.8454C40.6529 93.7682 40.3921 93.7453 40.1353 93.7784H40.1281Z" fill="#A1B1BE"/>
<path d="M62.0266 93.7784H56.5484C56.2916 93.7453 56.0308 93.7682 55.7834 93.8454C55.5359 93.9226 55.3075 94.0524 55.1133 94.2262C54.9191 94.4 54.7636 94.6138 54.657 94.8534C54.5505 95.093 54.4954 95.3528 54.4954 95.6157C54.4954 95.8786 54.5505 96.1384 54.657 96.378C54.7636 96.6176 54.9191 96.8314 55.1133 97.0052C55.3075 97.179 55.5359 97.3088 55.7834 97.3861C56.0308 97.4633 56.2916 97.4861 56.5484 97.4531H62.0266C62.2834 97.4861 62.5442 97.4633 62.7917 97.3861C63.0391 97.3088 63.2675 97.179 63.4617 97.0052C63.6559 96.8314 63.8115 96.6176 63.918 96.378C64.0246 96.1384 64.0797 95.8786 64.0797 95.6157C64.0797 95.3528 64.0246 95.093 63.918 94.8534C63.8115 94.6138 63.6559 94.4 63.4617 94.2262C63.2675 94.0524 63.0391 93.9226 62.7917 93.8454C62.5442 93.7682 62.2834 93.7453 62.0266 93.7784Z" fill="#A1B1BE"/>
<path d="M68.8945 91.0518V100.209C68.9503 100.656 69.1649 101.068 69.4979 101.366C69.831 101.664 70.2597 101.828 70.7037 101.828C71.1477 101.828 71.5763 101.664 71.9094 101.366C72.2425 101.068 72.4571 100.656 72.5129 100.209V91.0518C72.5455 90.791 72.523 90.5261 72.4469 90.2748C72.3709 90.0236 72.243 89.7916 72.0718 89.5943C71.9007 89.3971 71.6902 89.2392 71.4543 89.131C71.2184 89.0228 70.9626 88.9668 70.7037 88.9668C70.4449 88.9668 70.1889 89.0228 69.953 89.131C69.7171 89.2392 69.5066 89.3971 69.3355 89.5943C69.1643 89.7916 69.0364 90.0236 68.9604 90.2748C68.8844 90.5261 68.8619 90.791 68.8945 91.0518Z" fill="#A1B1BE"/>
</g>
<defs>
<clipPath id="clip0_324_2425">
<rect width="110" height="122" fill="white"/>
</clipPath>
</defs>
</svg>
