<svg width="120" height="114" viewBox="0 0 120 114" fill="none" xmlns="http://www.w3.org/2000/svg">
<g clip-path="url(#clip0_324_2784)">
<path d="M2.08322 9.13173L3.77612 7.44461C3.68808 7.16338 3.64416 6.87037 3.64589 6.5759C3.6478 5.7901 3.96321 5.03704 4.52314 4.48139C5.08306 3.92575 5.84193 3.61273 6.63378 3.61084C6.93083 3.61234 7.22596 3.65832 7.50918 3.74725L9.17313 2.08883C9.41097 1.85556 9.70868 1.69143 10.0339 1.61422C10.3591 1.53702 10.6995 1.54969 11.018 1.6509C9.75904 0.545646 8.12393 -0.0435955 6.4437 0.00251564C4.76347 0.0486268 3.16368 0.726657 1.96824 1.89927C0.772807 3.07188 0.0710715 4.65145 0.00510924 6.3182C-0.060853 7.98494 0.513887 9.61426 1.61297 10.8763C1.5305 10.5701 1.53053 10.2478 1.61306 9.94164C1.69559 9.63546 1.85772 9.35617 2.08322 9.13173Z" fill="#A1B1BE"/>
<path d="M108.135 3.13721H46.9595C40.4483 3.13721 35.0947 7.78941 35.0947 13.5113V25.2567L38.712 28.8463V13.5113C38.712 9.78526 42.4017 6.76275 46.9305 6.76275H108.106C112.635 6.76275 116.325 9.78526 116.325 13.5113V103.619C116.325 107.345 112.635 110.367 108.106 110.367H46.9595C42.4306 110.367 38.741 107.345 38.741 103.619V48.0725L36.1799 45.531L35.0947 44.4613V103.626C35.0947 109.369 40.4194 114 46.9595 114H108.135C114.646 114 120 109.341 120 103.626V13.5113C120 7.78941 114.675 3.13721 108.135 3.13721Z" fill="#A1B1BE"/>
<path d="M91.2568 32.4357C91.2568 32.9155 91.0647 33.3757 90.7228 33.715C90.3809 34.0543 89.9172 34.2449 89.4337 34.2449H87.6395V70.3353C87.6069 70.59 87.6294 70.8487 87.7054 71.0942C87.7815 71.3396 87.9092 71.5662 88.0803 71.7589C88.2514 71.9515 88.4619 72.1058 88.6977 72.2115C88.9335 72.3172 89.1893 72.3719 89.4481 72.3719C89.7069 72.3719 89.9627 72.3172 90.1985 72.2115C90.4344 72.1058 90.6448 71.9515 90.8159 71.7589C90.987 71.5662 91.1148 71.3396 91.1908 71.0942C91.2668 70.8487 91.2893 70.59 91.2568 70.3353V56.6946H107.101C107.585 56.6927 108.048 56.5004 108.39 56.16C108.732 55.8196 108.924 55.3587 108.924 54.8782V32.4357C108.924 31.9559 108.732 31.4957 108.39 31.1564C108.048 30.8171 107.584 30.6265 107.101 30.6265H89.4264C89.6664 30.6255 89.9043 30.6716 90.1263 30.7621C90.3483 30.8526 90.5502 30.9857 90.7202 31.1538C90.8903 31.3219 91.0252 31.5217 91.1173 31.7417C91.2094 31.9616 91.2568 32.1975 91.2568 32.4357ZM91.2568 34.2449H105.277V53.0906H91.2568V34.2449Z" fill="#A1B1BE"/>
<path d="M55.916 32.4357C55.9146 32.8306 55.783 33.2141 55.5413 33.5278C55.2997 33.8415 54.9612 34.0681 54.5776 34.1731C54.7351 34.219 54.8982 34.2432 55.0624 34.2449H89.4267C89.867 34.1896 90.2718 33.9767 90.5653 33.6462C90.8587 33.3158 91.0206 32.8905 91.0206 32.4501C91.0206 32.0097 90.8587 31.5844 90.5653 31.2539C90.2718 30.9235 89.867 30.7107 89.4267 30.6553H55.0841C54.9199 30.657 54.7568 30.6811 54.5993 30.727C54.9742 30.8346 55.3044 31.0585 55.5414 31.3661C55.7784 31.6737 55.9097 32.0486 55.916 32.4357Z" fill="#A1B1BE"/>
<path d="M49.8245 39.8661V34.2088H54.0856C54.5259 34.1534 54.9308 33.9406 55.2242 33.6101C55.5176 33.2797 55.6795 32.8544 55.6795 32.414C55.6795 31.9735 55.5176 31.5483 55.2242 31.2178C54.9308 30.8874 54.5259 30.6745 54.0856 30.6191H48.0013C47.5178 30.6191 47.0541 30.8098 46.7122 31.149C46.3703 31.4883 46.1782 31.9485 46.1782 32.4283V36.2764L49.8245 39.8661Z" fill="#A1B1BE"/>
<path d="M51.0182 91.5217H45.5416C45.1013 91.5771 44.6965 91.7899 44.4031 92.1203C44.1096 92.4508 43.9478 92.8761 43.9478 93.3165C43.9478 93.7569 44.1096 94.1822 44.4031 94.5126C44.6965 94.843 45.1013 95.056 45.5416 95.1113H51.0182C51.275 95.1436 51.5357 95.1213 51.783 95.0459C52.0304 94.9704 52.2587 94.8436 52.4528 94.6738C52.647 94.5041 52.8025 94.2952 52.909 94.0612C53.0155 93.8271 53.0706 93.5733 53.0706 93.3165C53.0706 93.0597 53.0155 92.8058 52.909 92.5718C52.8025 92.3377 52.647 92.129 52.4528 91.9592C52.2587 91.7894 52.0304 91.6626 51.783 91.5871C51.5357 91.5117 51.275 91.4894 51.0182 91.5217Z" fill="#A1B1BE"/>
<path d="M72.9098 91.5217H67.4332C67.1765 91.4894 66.9158 91.5117 66.6684 91.5871C66.4211 91.6626 66.1928 91.7894 65.9986 91.9592C65.8045 92.129 65.649 92.3377 65.5425 92.5718C65.4359 92.8058 65.3809 93.0597 65.3809 93.3165C65.3809 93.5733 65.4359 93.8271 65.5425 94.0612C65.649 94.2952 65.8045 94.5041 65.9986 94.6738C66.1928 94.8436 66.4211 94.9704 66.6684 95.0459C66.9158 95.1213 67.1765 95.1436 67.4332 95.1113H72.9098C73.1665 95.1436 73.4272 95.1213 73.6746 95.0459C73.9219 94.9704 74.1503 94.8436 74.3444 94.6738C74.5386 94.5041 74.694 94.2952 74.8006 94.0612C74.9071 93.8271 74.9622 93.5733 74.9622 93.3165C74.9622 93.0597 74.9071 92.8058 74.8006 92.5718C74.694 92.3377 74.5386 92.129 74.3444 91.9592C74.1503 91.7894 73.9219 91.6626 73.6746 91.5871C73.4272 91.5117 73.1665 91.4894 72.9098 91.5217Z" fill="#A1B1BE"/>
<path d="M61.9568 91.5217H56.4874C56.0471 91.5771 55.6423 91.7899 55.3489 92.1203C55.0555 92.4508 54.8936 92.8761 54.8936 93.3165C54.8936 93.7569 55.0555 94.1822 55.3489 94.5126C55.6423 94.843 56.0471 95.056 56.4874 95.1113H61.9568C62.2135 95.1436 62.4742 95.1213 62.7216 95.0459C62.9689 94.9704 63.1973 94.8436 63.3914 94.6738C63.5855 94.5041 63.741 94.2952 63.8476 94.0612C63.9541 93.8271 64.0091 93.5733 64.0091 93.3165C64.0091 93.0597 63.9541 92.8058 63.8476 92.5718C63.741 92.3377 63.5855 92.129 63.3914 91.9592C63.1973 91.7894 62.9689 91.6626 62.7216 91.5871C62.4742 91.5117 62.2135 91.4894 61.9568 91.5217Z" fill="#A1B1BE"/>
<path d="M83.8561 91.5215H78.3795C77.9392 91.5769 77.5344 91.7897 77.241 92.1201C76.9476 92.4506 76.7856 92.8759 76.7856 93.3163C76.7856 93.7567 76.9476 94.182 77.241 94.5124C77.5344 94.8428 77.9392 95.0558 78.3795 95.1111H83.8561C84.2964 95.0558 84.7012 94.8428 84.9947 94.5124C85.2881 94.182 85.45 93.7567 85.45 93.3163C85.45 92.8759 85.2881 92.4506 84.9947 92.1201C84.7012 91.7897 84.2964 91.5769 83.8561 91.5215Z" fill="#A1B1BE"/>
<path d="M94.8019 91.5217H89.3253C89.0686 91.4894 88.8079 91.5117 88.5605 91.5871C88.3132 91.6626 88.0848 91.7894 87.8907 91.9592C87.6966 92.129 87.5411 92.3377 87.4346 92.5718C87.3281 92.8058 87.2729 93.0597 87.2729 93.3165C87.2729 93.5733 87.3281 93.8271 87.4346 94.0612C87.5411 94.2952 87.6966 94.5041 87.8907 94.6738C88.0848 94.8436 88.3132 94.9704 88.5605 95.0459C88.8079 95.1213 89.0686 95.1436 89.3253 95.1113H94.8019C95.2422 95.056 95.647 94.843 95.9405 94.5126C96.2339 94.1822 96.3958 93.7569 96.3958 93.3165C96.3958 92.8761 96.2339 92.4508 95.9405 92.1203C95.647 91.7899 95.2422 91.5771 94.8019 91.5217Z" fill="#A1B1BE"/>
<path d="M105.726 91.5217H100.257C99.8167 91.5771 99.4119 91.7899 99.1184 92.1203C98.825 92.4508 98.6631 92.8761 98.6631 93.3165C98.6631 93.7569 98.825 94.1822 99.1184 94.5126C99.4119 94.843 99.8167 95.056 100.257 95.1113H105.726C105.983 95.1436 106.244 95.1213 106.491 95.0459C106.738 94.9704 106.967 94.8436 107.161 94.6738C107.355 94.5041 107.511 94.2952 107.617 94.0612C107.724 93.8271 107.779 93.5733 107.779 93.3165C107.779 93.0597 107.724 92.8058 107.617 92.5718C107.511 92.3377 107.355 92.129 107.161 91.9592C106.967 91.7894 106.738 91.6626 106.491 91.5871C106.244 91.5117 105.983 91.4894 105.726 91.5217Z" fill="#A1B1BE"/>
<path d="M50.6345 43.2048L48.9416 44.8847L59.5475 45.0642L68.3086 65.6042L74.241 71.4913C74.4944 71.7452 74.6666 72.0677 74.7362 72.4184C74.8058 72.769 74.7695 73.1323 74.6321 73.4626C74.4946 73.7929 74.262 74.0756 73.9634 74.2754C73.6647 74.4751 73.3134 74.583 72.9532 74.5855C72.4679 74.5843 72.0027 74.3935 71.6582 74.0542L65.7331 68.1672L45.0421 59.4803L44.9625 48.8333L43.5156 50.2692C43.1743 50.6086 42.7111 50.7997 42.2279 50.8004C41.9034 50.8001 41.5854 50.7106 41.3091 50.542L41.3814 60.7151C41.384 61.0692 41.4908 61.4149 41.6888 61.7095C41.8867 62.0042 42.1672 62.2349 42.4956 62.3735L72.8809 75.1455C73.2158 75.2867 73.5856 75.3253 73.9427 75.2562C74.2998 75.1871 74.628 75.0135 74.8849 74.7578C75.1405 74.5015 75.3134 74.1756 75.3817 73.8215C75.45 73.4673 75.4105 73.101 75.2683 72.7692L62.3979 42.6161C62.261 42.2933 62.0319 42.0172 61.7388 41.822C61.4457 41.6268 61.1014 41.521 60.7485 41.5176L51.0034 41.3525C51.1206 41.6649 51.1481 42.0034 51.083 42.3304C51.0179 42.6574 50.8626 42.9601 50.6345 43.2048Z" fill="#A1B1BE"/>
<path d="M58.8747 58.9991C58.4619 59.4124 57.9699 59.7395 57.4277 59.9611L65.7331 68.2029L71.6582 74.09C71.8276 74.2586 72.0288 74.3924 72.2504 74.4837C72.472 74.5751 72.7096 74.6221 72.9496 74.6221C73.1895 74.6221 73.4271 74.5751 73.6487 74.4837C73.8703 74.3924 74.0716 74.2586 74.2409 74.09C74.4109 73.9219 74.5458 73.7222 74.6378 73.5023C74.7298 73.2824 74.7772 73.0466 74.7772 72.8085C74.7772 72.5703 74.7298 72.3346 74.6378 72.1147C74.5458 71.8948 74.4109 71.695 74.2409 71.5269L68.3086 65.6399L59.9381 57.3335C59.7095 57.9586 59.3466 58.5269 58.8747 58.9991Z" fill="#A1B1BE"/>
<path d="M59.9381 57.3193C60.2303 56.514 60.2855 55.6428 60.0971 54.8075C59.9088 53.9723 59.4848 53.2074 58.8747 52.6025C58.4542 52.1814 57.9539 51.8471 57.4026 51.619C56.8513 51.3909 56.2598 51.2734 55.6625 51.2734C55.0651 51.2734 54.4737 51.3909 53.9224 51.619C53.3711 51.8471 52.8707 52.1814 52.4503 52.6025C51.8162 53.234 51.3845 54.0376 51.2099 54.9122C51.0352 55.7867 51.1253 56.693 51.4688 57.5168C51.8123 58.3406 52.3939 59.045 53.1401 59.5413C53.8864 60.0376 54.7641 60.3037 55.6625 60.3059C56.8663 60.3002 58.0197 59.8258 58.8747 58.9849C59.3466 58.5127 59.7095 57.9445 59.9381 57.3193ZM55.0258 56.4219C54.8597 56.2529 54.7667 56.0262 54.7667 55.7901C54.7667 55.554 54.8597 55.3273 55.0258 55.1583C55.1961 54.9935 55.4246 54.9011 55.6625 54.9011C55.9004 54.9011 56.1289 54.9935 56.2991 55.1583C56.4653 55.3273 56.5583 55.554 56.5583 55.7901C56.5583 56.0262 56.4653 56.2529 56.2991 56.4219C56.1289 56.5868 55.9004 56.679 55.6625 56.679C55.4246 56.679 55.1961 56.5868 55.0258 56.4219Z" fill="#A1B1BE"/>
<path d="M41.3382 50.5421C41.6146 50.7108 41.9326 50.8002 42.257 50.8006C42.7402 50.7999 43.2034 50.6088 43.5447 50.2693L44.9917 48.8335L48.9707 44.8848L50.6636 43.2049C50.9098 42.961 51.0803 42.6521 51.1547 42.3148C51.2291 41.9775 51.2043 41.6261 51.0832 41.3024C50.9899 41.0562 50.8472 40.8316 50.6636 40.6419L49.8533 39.845L46.236 36.2553L45.9177 35.9395C46.2588 36.2786 46.4503 36.7382 46.4503 37.2173C46.4503 37.6965 46.2588 38.1561 45.9177 38.4953L38.8206 45.531C38.6514 45.7009 38.4497 45.8354 38.2272 45.9267C38.0048 46.0179 37.7662 46.064 37.5256 46.0623C37.0438 46.0611 36.5816 45.873 36.2378 45.5382L38.7988 48.0797L41.0126 50.2765C41.1082 50.3796 41.2178 50.469 41.3382 50.5421ZM44.5721 39.7732L46.7424 41.927L42.228 46.4069L40.0577 44.2531L44.5721 39.7732Z" fill="#A1B1BE"/>
<path d="M36.1797 45.531C36.5236 45.8659 36.9857 46.054 37.4675 46.0551C37.7082 46.0569 37.9468 46.0108 38.1692 45.9195C38.3916 45.8283 38.5933 45.6938 38.7625 45.5238L45.8596 38.4881C46.2007 38.1489 46.3922 37.6894 46.3922 37.2102C46.3922 36.7311 46.2007 36.2715 45.8596 35.9323L38.7408 28.8679L35.1235 25.2782L11.7847 2.11775C11.5848 1.91327 11.3359 1.76254 11.0612 1.67978C10.7427 1.57858 10.4024 1.5659 10.0772 1.64311C9.75192 1.72031 9.45423 1.88448 9.21638 2.11775L7.55242 3.77617L3.81936 7.47349L2.12647 9.16066C1.78672 9.50197 1.59619 9.96239 1.59619 10.4421C1.59619 10.9219 1.78672 11.3824 2.12647 11.7237L35.1379 44.4829L36.2231 45.5526L36.1797 45.531ZM5.94634 10.4099L10.468 5.92997L41.9891 37.203L37.4675 41.6901L5.94634 10.4099Z" fill="#A1B1BE"/>
</g>
<defs>
<clipPath id="clip0_324_2784">
<rect width="120" height="114" fill="white"/>
</clipPath>
</defs>
</svg>
