<svg width="133" height="119" viewBox="0 0 133 119" fill="none" xmlns="http://www.w3.org/2000/svg">
<g clip-path="url(#clip0_324_2732)">
<path d="M100.49 95.3955L68.9938 113.521C69.0287 113.665 69.0475 113.812 69.0499 113.96V116.987C69.0472 117.375 68.9325 117.755 68.7192 118.081C68.506 118.406 68.2033 118.664 67.8472 118.823L68.0316 118.727L102.871 98.7013L101.372 97.783C100.971 97.5471 100.664 97.1807 100.504 96.7457C100.343 96.3107 100.338 95.8337 100.49 95.3955Z" fill="#A1B1BE"/>
<path d="M29.1348 52.8678C29.2076 52.7805 29.2911 52.7028 29.3833 52.6362C29.2893 52.7006 29.2055 52.7786 29.1348 52.8678Z" fill="#A1B1BE"/>
<path d="M28.9023 53.2196C28.9618 53.1169 29.0317 53.0206 29.1108 52.9321C29.0335 53.0221 28.9638 53.1182 28.9023 53.2196Z" fill="#A1B1BE"/>
<path d="M64.9846 116.987V113.961C64.9828 113.812 65.0017 113.665 65.0408 113.521L32.6469 94.9006V57.659C32.5051 57.614 32.3681 57.5552 32.238 57.4833L29.616 55.9742C29.278 55.7809 29.004 55.4936 28.8274 55.1476C28.6508 54.8015 28.5793 54.4117 28.6218 54.0259C28.6175 54.095 28.6175 54.1644 28.6218 54.2335V94.9565L29.592 94.3657C30.0492 94.0872 30.5988 94.0009 31.1198 94.126C31.6408 94.251 32.0907 94.577 32.3703 95.0324C32.65 95.4877 32.7365 96.035 32.6109 96.5539C32.4854 97.0727 32.158 97.5207 31.7008 97.7992L30.6664 98.422L66.011 118.744L66.2034 118.831C65.8412 118.677 65.5326 118.419 65.316 118.091C65.0993 117.763 64.9841 117.379 64.9846 116.987Z" fill="#A1B1BE"/>
<path d="M66.54 118.943C66.4305 118.917 66.3232 118.882 66.2192 118.839C66.3219 118.886 66.4295 118.921 66.54 118.943Z" fill="#A1B1BE"/>
<path d="M31.6206 52.4849L34.2506 53.994C34.376 54.0709 34.4941 54.1591 34.6034 54.2575L65.0247 36.7706C64.9856 36.6275 64.9667 36.4797 64.9686 36.3314V32.1553L29.6 52.4849L29.4236 52.6046C29.739 52.3754 30.1144 52.2421 30.5043 52.2208C30.8942 52.1996 31.2819 52.2913 31.6206 52.4849Z" fill="#A1B1BE"/>
<path d="M68.9936 34.0158V36.3314C68.9918 36.4794 68.973 36.6268 68.9375 36.7706L99.3589 54.2575C99.4681 54.1591 99.5862 54.0709 99.7117 53.994L102.342 52.4849C102.679 52.291 103.065 52.1991 103.454 52.2204C103.843 52.2416 104.217 52.3752 104.531 52.6046L104.362 52.4849L68.9936 32.1553V34.0158Z" fill="#A1B1BE"/>
<path d="M104.916 52.9321C104.988 53.0279 105.06 53.1158 105.124 53.2196C105.063 53.1182 104.993 53.0221 104.916 52.9321Z" fill="#A1B1BE"/>
<path d="M104.603 52.6284C104.692 52.702 104.775 52.7821 104.852 52.868C104.777 52.7802 104.694 52.7 104.603 52.6284Z" fill="#A1B1BE"/>
<path d="M104.386 55.9742L101.756 57.4833C101.63 57.5566 101.495 57.6155 101.355 57.659V94.3896C101.67 94.1959 102.032 94.0933 102.402 94.0933C102.772 94.0933 103.134 94.1959 103.448 94.3896L105.397 95.5714V54.2335C105.401 54.1644 105.401 54.095 105.397 54.0259C105.438 54.4134 105.364 54.8043 105.184 55.1505C105.005 55.4967 104.727 55.7831 104.386 55.9742Z" fill="#A1B1BE"/>
<path d="M67.7667 118.839C67.66 118.882 67.5501 118.917 67.438 118.943C67.551 118.92 67.6612 118.886 67.7667 118.839Z" fill="#A1B1BE"/>
<path d="M105.3 53.6426C105.339 53.7484 105.366 53.8582 105.38 53.97C105.362 53.8589 105.335 53.7495 105.3 53.6426Z" fill="#A1B1BE"/>
<path d="M64.9845 36.3312C64.9826 36.4795 65.0015 36.6273 65.0406 36.7704C65.1366 37.2195 65.3845 37.622 65.7428 37.9109C66.1011 38.1998 66.5481 38.3574 67.0091 38.3574C67.4701 38.3574 67.9171 38.1998 68.2754 37.9109C68.6338 37.622 68.8816 37.2195 68.9776 36.7704C69.0131 36.6267 69.0319 36.4793 69.0337 36.3312V34.0156C68.9594 34.4919 68.7165 34.9261 68.3489 35.2397C67.9813 35.5533 67.5132 35.7256 67.0292 35.7256C66.5451 35.7256 66.077 35.5533 65.7094 35.2397C65.3418 34.9261 65.0989 34.4919 65.0246 34.0156L64.9845 36.3312Z" fill="#A1B1BE"/>
<path d="M66.9891 77.1663C66.6341 77.1668 66.2854 77.0731 65.9788 76.8948L65.602 76.6792C65.4022 76.8671 65.2429 77.0935 65.134 77.3448C65.0251 77.596 64.9688 77.8668 64.9685 78.1405V84.1052C65.0428 84.5815 65.2858 85.0156 65.6534 85.3292C66.021 85.6428 66.489 85.8152 66.9731 85.8152C67.4571 85.8152 67.9252 85.6428 68.2928 85.3292C68.6604 85.0156 68.9033 84.5815 68.9776 84.1052V78.1405C68.9778 77.866 68.9209 77.5945 68.8105 77.343C68.7001 77.0915 68.5386 76.8655 68.3362 76.6792L67.9594 76.8948C67.6655 77.0685 67.3308 77.1621 66.9891 77.1663Z" fill="#A1B1BE"/>
<path d="M64.9846 66.1949V71.7204C65.1282 71.7604 65.2658 71.8195 65.3936 71.8961L66.9972 72.8223L68.6009 71.8961C68.7279 71.8181 68.8657 71.7589 69.0098 71.7204V66.1949C68.9355 65.7186 68.6926 65.2844 68.3249 64.9708C67.9573 64.6572 67.4893 64.4849 67.0052 64.4849C66.5212 64.4849 66.0531 64.6572 65.6855 64.9708C65.3179 65.2844 65.075 65.7186 65.0007 66.1949H64.9846Z" fill="#A1B1BE"/>
<path d="M64.9846 42.3038V48.2764C65.0589 48.7528 65.3018 49.1869 65.6694 49.5005C66.037 49.8141 66.5051 49.9864 66.9892 49.9864C67.4732 49.9864 67.9413 49.8141 68.3089 49.5005C68.6766 49.1869 68.9194 48.7528 68.9938 48.2764V42.3038C68.9194 41.8274 68.6766 41.3933 68.3089 41.0797C67.9413 40.7661 67.4732 40.5938 66.9892 40.5938C66.5051 40.5938 66.037 40.7661 65.6694 41.0797C65.3018 41.3933 65.0589 41.8274 64.9846 42.3038Z" fill="#A1B1BE"/>
<path d="M64.9846 90.0777V96.0504C65.0589 96.5267 65.3018 96.9608 65.6694 97.2744C66.037 97.588 66.5051 97.7604 66.9892 97.7604C67.4732 97.7604 67.9413 97.588 68.3089 97.2744C68.6766 96.9608 68.9194 96.5267 68.9938 96.0504V90.0777C68.9194 89.6014 68.6766 89.1672 68.3089 88.8536C67.9413 88.54 67.4732 88.3677 66.9892 88.3677C66.5051 88.3677 66.037 88.54 65.6694 88.8536C65.3018 89.1672 65.0589 89.6014 64.9846 90.0777Z" fill="#A1B1BE"/>
<path d="M64.9846 54.2497V60.2145C65.0589 60.6908 65.3018 61.1249 65.6694 61.4385C66.037 61.7521 66.5051 61.9245 66.9892 61.9245C67.4732 61.9245 67.9413 61.7521 68.3089 61.4385C68.6766 61.1249 68.9194 60.6908 68.9938 60.2145V54.2417C68.9194 53.7654 68.6766 53.3313 68.3089 53.0177C67.9413 52.7041 67.4732 52.5317 66.9892 52.5317C66.5051 52.5317 66.037 52.7041 65.6694 53.0177C65.3018 53.3313 65.0589 53.7654 64.9846 54.2417V54.2497Z" fill="#A1B1BE"/>
<path d="M64.9847 102.023V107.988C64.9398 108.276 64.958 108.57 65.0381 108.851C65.1182 109.131 65.2582 109.391 65.4486 109.612C65.6391 109.834 65.8754 110.012 66.1413 110.133C66.4073 110.255 66.6966 110.318 66.9893 110.318C67.2821 110.318 67.5713 110.255 67.8373 110.133C68.1032 110.012 68.3395 109.834 68.53 109.612C68.7204 109.391 68.8605 109.131 68.9405 108.851C69.0206 108.57 69.0388 108.276 68.9939 107.988V102.023C69.0388 101.735 69.0206 101.441 68.9405 101.16C68.8605 100.88 68.7204 100.62 68.53 100.399C68.3395 100.177 68.1032 99.9997 67.8373 99.8778C67.5713 99.756 67.2821 99.6929 66.9893 99.6929C66.6966 99.6929 66.4073 99.756 66.1413 99.8778C65.8754 99.9997 65.6391 100.177 65.4486 100.399C65.2582 100.62 65.1182 100.88 65.0381 101.16C64.958 101.441 64.9398 101.735 64.9847 102.023Z" fill="#A1B1BE"/>
<path d="M68.9936 116.987V113.961C69.0178 113.45 68.8454 112.948 68.5114 112.559C68.1775 112.17 67.7071 111.922 67.1962 111.866C66.6852 111.81 66.1721 111.95 65.7612 112.258C65.3502 112.565 65.0725 113.017 64.9845 113.522C64.9454 113.665 64.9265 113.813 64.9283 113.961V116.987C64.9296 117.375 65.0439 117.754 65.2574 118.079C65.4709 118.404 65.7744 118.66 66.1311 118.816H66.1792C66.2832 118.859 66.3905 118.893 66.4999 118.919H66.5881C66.7081 118.931 66.829 118.931 66.949 118.919C67.0689 118.932 67.1899 118.932 67.3098 118.919H67.398C67.5101 118.893 67.62 118.859 67.7267 118.816H67.7748C68.1327 118.659 68.4379 118.404 68.654 118.08C68.8701 117.756 68.988 117.376 68.9936 116.987Z" fill="#A1B1BE"/>
<path d="M29.5998 55.9742L32.2218 57.4833C32.3519 57.5552 32.4889 57.6141 32.6307 57.659C32.8249 57.7219 33.0278 57.7542 33.2321 57.7549C33.6401 57.7564 34.039 57.635 34.3764 57.4064C34.7138 57.1779 34.9737 56.853 35.1221 56.4745C35.2705 56.096 35.3004 55.6816 35.2078 55.2858C35.1151 54.8901 34.9043 54.5316 34.6032 54.2575C34.4939 54.1591 34.3758 54.0708 34.2504 53.9939L31.6204 52.4848C31.2817 52.2912 30.894 52.1995 30.5041 52.2208C30.1142 52.242 29.7388 52.3753 29.4234 52.6046C29.3311 52.6711 29.2476 52.7489 29.1748 52.8361L29.1107 52.9C29.0315 52.9885 28.9617 53.0848 28.9022 53.1875C28.8401 53.291 28.789 53.4007 28.7498 53.5148V53.6027C28.7109 53.7085 28.684 53.8183 28.6697 53.9301V53.986C28.6129 54.3716 28.6706 54.7654 28.8359 55.1187C29.0012 55.472 29.2667 55.7694 29.5998 55.9742Z" fill="#A1B1BE"/>
<path d="M52.0351 64.2064L47.593 61.6512C47.1283 61.3833 46.5758 61.3102 46.057 61.448C45.5382 61.5857 45.0957 61.9231 44.8266 62.3858C44.5576 62.8485 44.4842 63.3987 44.6226 63.9154C44.7609 64.432 45.0997 64.8727 45.5644 65.1406L50.0145 67.6958C50.4804 67.9583 51.0311 68.0284 51.5483 67.8911C52.0655 67.7537 52.508 67.4199 52.7808 66.9612C53.048 66.4972 53.1195 65.9467 52.9797 65.4303C52.84 64.9139 52.5002 64.4737 52.0351 64.2064Z" fill="#A1B1BE"/>
<path d="M60.9274 69.3331L56.4853 66.7859C56.2553 66.6408 55.9982 66.5435 55.7295 66.4999C55.4609 66.4562 55.186 66.4671 54.9217 66.5319C54.6573 66.5966 54.4088 66.7138 54.1911 66.8766C53.9734 67.0393 53.791 67.2442 53.6547 67.4789C53.5185 67.7137 53.4313 67.9733 53.3984 68.2424C53.3655 68.5115 53.3874 68.7845 53.4631 69.045C53.5387 69.3054 53.6664 69.5479 53.8386 69.7579C54.0107 69.968 54.2236 70.1413 54.4646 70.2673L58.9067 72.8225C59.212 73.0038 59.5616 73.0977 59.9171 73.094C60.3638 73.0963 60.7988 72.9512 61.1539 72.6812C61.509 72.4112 61.7643 72.0316 61.8797 71.6018C61.9952 71.172 61.9643 70.7162 61.792 70.3057C61.6197 69.8952 61.3156 69.5532 60.9274 69.3331Z" fill="#A1B1BE"/>
<path d="M43.1427 59.112L38.6925 56.5569C38.4625 56.4118 38.2055 56.3145 37.9368 56.2709C37.6681 56.2272 37.3933 56.2381 37.129 56.3028C36.8646 56.3675 36.6161 56.4848 36.3984 56.6475C36.1807 56.8103 35.9982 57.0152 35.862 57.2499C35.7258 57.4846 35.6386 57.7443 35.6057 58.0134C35.5727 58.2826 35.5947 58.5555 35.6704 58.8159C35.746 59.0764 35.8737 59.3189 36.0458 59.5289C36.2179 59.739 36.4309 59.9123 36.6719 60.0383L41.122 62.6014C41.5867 62.8636 42.1362 62.9335 42.6521 62.7961C43.168 62.6587 43.6091 62.325 43.8803 61.8668C44.1482 61.4039 44.221 60.854 44.0828 60.3377C43.9445 59.8214 43.6065 59.3807 43.1427 59.112Z" fill="#A1B1BE"/>
<path d="M66.989 72.8225L65.3853 71.8963C65.2576 71.8197 65.12 71.7606 64.9764 71.7206C64.5052 71.5846 64.0004 71.6241 63.5562 71.8315C63.112 72.039 62.7587 72.4003 62.5624 72.8481C62.3661 73.2958 62.34 73.7994 62.4891 74.2649C62.6382 74.7304 62.9523 75.1259 63.3727 75.3777L65.6259 76.6792L66.0028 76.8948C66.3093 77.0732 66.6581 77.1669 67.0131 77.1663C67.3684 77.1692 67.7177 77.0754 68.0233 76.8948L68.4002 76.6792L70.5972 75.3857C71.0177 75.1339 71.3317 74.7383 71.4808 74.2728C71.6299 73.8074 71.6039 73.3038 71.4076 72.856C71.2112 72.4083 70.858 72.047 70.4138 71.8395C69.9696 71.6321 69.4648 71.5926 68.9936 71.7286C68.8494 71.7671 68.7117 71.8263 68.5846 71.9043L66.989 72.8225Z" fill="#A1B1BE"/>
<path d="M82.9617 67.9758C83.316 67.9784 83.6646 67.8875 83.9721 67.7123L88.4142 65.1571C88.6442 65.025 88.846 64.8491 89.0078 64.6393C89.1695 64.4296 89.2883 64.1901 89.3571 63.9347C89.426 63.6793 89.4437 63.4128 89.4092 63.1506C89.3746 62.8883 89.2886 62.6355 89.1559 62.4063C89.0232 62.1772 88.8465 61.9764 88.6359 61.8153C88.4253 61.6541 88.1848 61.5359 87.9283 61.4673C87.6718 61.3988 87.4043 61.3811 87.141 61.4155C86.8776 61.4499 86.6237 61.5356 86.3936 61.6677L81.9514 64.2229C81.5608 64.4407 81.2543 64.7819 81.0802 65.1926C80.9062 65.6034 80.8746 66.0602 80.9905 66.4908C81.1064 66.9214 81.3632 67.3012 81.7202 67.5702C82.0773 67.8391 82.5141 67.9818 82.9617 67.9758Z" fill="#A1B1BE"/>
<path d="M91.8539 62.8649C92.2081 62.8676 92.5567 62.7766 92.8642 62.6014L97.3063 60.0383C97.5473 59.9123 97.7603 59.739 97.9324 59.5289C98.1045 59.3189 98.2322 59.0764 98.3078 58.8159C98.3835 58.5555 98.4055 58.2826 98.3725 58.0134C98.3396 57.7443 98.2524 57.4846 98.1162 57.2499C97.9799 57.0152 97.7975 56.8103 97.5798 56.6475C97.3621 56.4848 97.1136 56.3675 96.8492 56.3028C96.5849 56.2381 96.3101 56.2272 96.0414 56.2709C95.7727 56.3145 95.5156 56.4118 95.2857 56.5569L90.8435 59.112C90.4529 59.3298 90.1463 59.671 89.9723 60.0817C89.7982 60.4925 89.7667 60.9493 89.8826 61.3799C89.9985 61.8105 90.2553 62.1903 90.6123 62.4593C90.9693 62.7282 91.4062 62.871 91.8539 62.8649Z" fill="#A1B1BE"/>
<path d="M74.0692 73.094C74.4235 73.0966 74.7721 73.0056 75.0795 72.8304L79.5216 70.2673C79.7627 70.1413 79.9756 69.968 80.1477 69.7579C80.3198 69.5479 80.4476 69.3054 80.5232 69.045C80.5988 68.7845 80.6208 68.5115 80.5879 68.2424C80.555 67.9733 80.4678 67.7137 80.3315 67.4789C80.1953 67.2442 80.0129 67.0393 79.7952 66.8766C79.5774 66.7138 79.3289 66.5966 79.0646 66.5319C78.8002 66.4671 78.5254 66.4562 78.2568 66.4999C77.9881 66.5435 77.731 66.6408 77.501 66.7859L73.0509 69.3331C72.662 69.5535 72.3576 69.8962 72.1854 70.3075C72.0132 70.7188 71.983 71.1755 72.0995 71.6057C72.216 72.036 72.4726 72.4155 72.829 72.6849C73.1855 72.9542 73.6218 73.0981 74.0692 73.094Z" fill="#A1B1BE"/>
<path d="M102.366 52.4846L99.7357 53.9938C99.6103 54.0707 99.4922 54.1589 99.3829 54.2573C99.0823 54.531 98.8717 54.8887 98.7788 55.2837C98.6859 55.6787 98.7151 56.0924 98.8625 56.4705C99.0099 56.8487 99.2686 57.1737 99.6047 57.4028C99.9408 57.632 100.339 57.7546 100.746 57.7547C101.101 57.7526 101.449 57.6591 101.756 57.4832L104.386 55.974C104.724 55.7807 104.998 55.4934 105.175 55.1474C105.352 54.8014 105.423 54.4116 105.381 54.0257V53.9698C105.366 53.858 105.339 53.7482 105.3 53.6424V53.5546C105.261 53.4405 105.21 53.3308 105.148 53.2272C105.084 53.1234 105.012 53.0356 104.94 52.9398L104.875 52.8759C104.799 52.79 104.716 52.71 104.627 52.6363H104.579C104.266 52.3969 103.889 52.2548 103.495 52.2279C103.102 52.2009 102.709 52.2902 102.366 52.4846Z" fill="#A1B1BE"/>
<path d="M32.3341 95.0203C32.1968 94.7943 32.0158 94.5975 31.8018 94.4413C31.5878 94.2851 31.3449 94.1726 31.0871 94.1103C30.8292 94.0479 30.5615 94.037 30.2994 94.0781C30.0373 94.1191 29.786 94.2114 29.5598 94.3496L28.5896 94.9405L0.966585 111.709C0.590476 111.938 0.299925 112.283 0.139162 112.692C-0.021601 113.1 -0.0437296 113.55 0.0761764 113.973C0.196082 114.395 0.45142 114.767 0.803273 115.032C1.15513 115.296 1.58417 115.439 2.025 115.438C2.39704 115.438 2.76153 115.333 3.0754 115.134L30.6342 98.366L31.6686 97.7432C32.1132 97.4645 32.4313 97.0244 32.5556 96.5161C32.6798 96.0078 32.6004 95.4713 32.3341 95.0203Z" fill="#A1B1BE"/>
<path d="M101.355 94.3576C101.076 94.5185 100.842 94.7463 100.674 95.0204C100.598 95.138 100.536 95.2639 100.489 95.3957C100.333 95.8314 100.332 96.3076 100.487 96.7439C100.642 97.1802 100.943 97.5501 101.339 97.7911L102.839 98.7094L129.933 115.158C130.246 115.357 130.611 115.463 130.983 115.462C131.423 115.461 131.851 115.317 132.201 115.052C132.552 114.787 132.806 114.415 132.925 113.993C133.044 113.571 133.021 113.122 132.86 112.714C132.699 112.306 132.409 111.961 132.033 111.733L105.397 95.5314L103.472 94.3496C103.154 94.1523 102.787 94.0484 102.413 94.0498C102.038 94.0512 101.672 94.1579 101.355 94.3576Z" fill="#A1B1BE"/>
<path d="M66.9891 0C66.4532 0 65.9393 0.212004 65.5603 0.589365C65.1814 0.966725 64.9685 1.47852 64.9685 2.01219V34.0157C65.0428 34.492 65.2858 34.9262 65.6534 35.2398C66.021 35.5534 66.489 35.7257 66.9731 35.7257C67.4571 35.7257 67.9252 35.5534 68.2928 35.2398C68.6604 34.9262 68.9033 34.492 68.9776 34.0157V2.01219C68.9777 1.48401 68.7692 0.97698 68.3972 0.600525C68.0252 0.22407 67.5194 0.0083838 66.9891 0Z" fill="#A1B1BE"/>
</g>
<defs>
<clipPath id="clip0_324_2732">
<rect width="133" height="119" fill="white"/>
</clipPath>
</defs>
</svg>
