<svg width="89" height="123" viewBox="0 0 89 123" fill="none" xmlns="http://www.w3.org/2000/svg">
<g clip-path="url(#clip0_324_2697)">
<path d="M87.1634 1.47237e-05H18.6836C18.9283 -0.000961551 19.1708 0.0466212 19.3972 0.140093C19.6236 0.233565 19.8293 0.371049 20.0027 0.544668C20.1761 0.718287 20.3137 0.924624 20.4076 1.15182C20.5014 1.37903 20.5497 1.62262 20.5497 1.86865V3.73732H85.312V98.9723H25.5655C25.8102 98.9713 26.0527 99.019 26.2791 99.1124C26.5055 99.2059 26.7112 99.3433 26.8846 99.517C27.058 99.6906 27.1956 99.897 27.2895 100.124C27.3833 100.351 27.4317 100.595 27.4317 100.841V102.71H87.1339C87.3786 102.711 87.6211 102.663 87.8475 102.57C88.0738 102.476 88.2796 102.339 88.453 102.165C88.6264 101.991 88.7639 101.785 88.8578 101.558C88.9517 101.331 89 101.087 89 100.841V1.86865C89.0001 1.37688 88.8073 0.904932 88.4634 0.555123C88.1196 0.205314 87.6525 0.00586912 87.1634 1.47237e-05Z" fill="#A1B1BE"/>
<path d="M20.5497 100.841C20.5497 101.087 20.5014 101.33 20.4076 101.558C20.3137 101.785 20.1761 101.991 20.0027 102.165C19.8293 102.338 19.6236 102.476 19.3972 102.569C19.1708 102.663 18.9283 102.71 18.6836 102.71H23.7436V100.841C23.7426 100.596 23.7898 100.353 23.8824 100.126C23.975 99.8996 24.1112 99.6935 24.2832 99.5199C24.4553 99.3463 24.6597 99.2086 24.8848 99.1146C25.1099 99.0206 25.3513 98.9722 25.595 98.9722H20.5497V100.841Z" fill="#A1B1BE"/>
<path d="M14.3096 98.9723H3.74705V3.73732H16.8249V98.9723H14.3096C14.8026 98.9723 15.2754 99.1692 15.624 99.5197C15.9726 99.8701 16.1684 100.345 16.1684 100.841V102.71H18.6837C18.9284 102.711 19.1709 102.663 19.3973 102.57C19.6236 102.476 19.8294 102.339 20.0028 102.165C20.1762 101.991 20.3138 101.785 20.4076 101.558C20.5015 101.331 20.5498 101.087 20.5498 100.841V1.86865C20.5498 1.62262 20.5015 1.37903 20.4076 1.15182C20.3138 0.924624 20.1762 0.718287 20.0028 0.544668C19.8294 0.371049 19.6236 0.233565 19.3973 0.140093C19.1709 0.0466212 18.9284 -0.000961551 18.6837 1.47237e-05H1.85877C1.36579 1.47237e-05 0.892995 0.196896 0.544407 0.547338C0.195818 0.89778 0 1.37305 0 1.86865V100.841C0 101.337 0.195818 101.812 0.544407 102.162C0.892995 102.513 1.36579 102.71 1.85877 102.71H12.4287V100.841C12.4287 100.594 12.4775 100.349 12.5723 100.121C12.6671 99.8925 12.806 99.6855 12.981 99.5117C13.1559 99.3379 13.3634 99.2007 13.5915 99.1081C13.8196 99.0155 14.0637 98.9694 14.3096 98.9723Z" fill="#A1B1BE"/>
<path d="M25.5949 98.972C25.3512 98.972 25.1099 99.0204 24.8848 99.1144C24.6596 99.2084 24.4552 99.3462 24.2832 99.5198C24.1112 99.6934 23.975 99.8995 23.8824 100.126C23.7897 100.353 23.7426 100.596 23.7436 100.841V115.197L21.4791 111.949C21.3088 111.701 21.0812 111.499 20.8159 111.359C20.5506 111.219 20.2555 111.146 19.9559 111.146C19.6563 111.146 19.3612 111.219 19.0959 111.359C18.8306 111.499 18.6031 111.701 18.4328 111.949L16.1683 115.197V100.841C16.1114 100.389 15.8927 99.9745 15.5532 99.6738C15.2137 99.373 14.7768 99.207 14.3243 99.207C13.8718 99.207 13.4348 99.373 13.0953 99.6738C12.7558 99.9745 12.5371 100.389 12.4802 100.841V121.129C12.4798 121.527 12.6059 121.915 12.8402 122.236C13.0745 122.557 13.4046 122.795 13.7826 122.914C14.1605 123.033 14.5665 123.028 14.9413 122.899C15.316 122.77 15.6399 122.524 15.8659 122.197L19.9891 116.265L24.105 122.197C24.2756 122.443 24.5028 122.645 24.7673 122.784C25.0318 122.923 25.3258 122.997 25.6245 122.998C25.8148 122.998 26.004 122.968 26.185 122.909C26.5627 122.79 26.893 122.554 27.1278 122.234C27.3626 121.914 27.4897 121.527 27.4906 121.129V100.841C27.4907 100.592 27.4414 100.346 27.3457 100.117C27.25 99.8878 27.1097 99.6801 26.9332 99.5061C26.7567 99.3321 26.5474 99.1952 26.3176 99.1035C26.0878 99.0118 25.8421 98.9671 25.5949 98.972Z" fill="#A1B1BE"/>
<path d="M72.6252 45.3669C72.5173 45.3556 72.4086 45.3556 72.3007 45.3669C71.8077 45.3669 71.3349 45.5638 70.9863 45.9143C70.6377 46.2647 70.4419 46.74 70.4419 47.2356V68.5027H74.1299V47.2356C74.1258 46.9069 74.0369 46.5849 73.8718 46.3012C73.6089 46.2461 73.3611 46.134 73.1458 45.9726C72.9304 45.8113 72.7528 45.6045 72.6252 45.3669Z" fill="#A1B1BE"/>
<path d="M33.576 68.4731V47.206C33.5769 46.9603 33.5295 46.7169 33.4365 46.4897C33.3434 46.2626 33.2065 46.0561 33.0337 45.8824C32.8609 45.7087 32.6556 45.5711 32.4297 45.4775C32.2037 45.384 31.9616 45.3363 31.7172 45.3373C31.6117 45.3264 31.5054 45.3264 31.4 45.3373C31.263 45.5732 31.0766 45.7763 30.8537 45.9325C30.6308 46.0887 30.3767 46.1943 30.1092 46.242C29.9464 46.5263 29.86 46.8483 29.8584 47.1763V68.4434L33.576 68.4731Z" fill="#A1B1BE"/>
<path d="M51.0573 25.7534L51.935 24.9748L52.8128 25.7163C52.9967 25.8782 53.2106 26.0021 53.4422 26.0808C53.6738 26.1595 53.9185 26.1915 54.1625 26.175C54.4064 26.1584 54.6447 26.0937 54.8637 25.9845C55.0826 25.8752 55.2781 25.7236 55.4387 25.5384C55.5998 25.3535 55.723 25.1384 55.8012 24.9056C55.8795 24.6727 55.9114 24.4267 55.8949 24.1815C55.8785 23.9363 55.8141 23.6967 55.7054 23.4766C55.5968 23.2564 55.446 23.06 55.2617 22.8985L53.1521 21.052C52.8132 20.7538 52.3781 20.5894 51.9277 20.5894C51.4772 20.5894 51.0421 20.7538 50.7032 21.052L48.6084 22.8985C48.4246 23.0605 48.2744 23.2573 48.1664 23.4777C48.0584 23.6981 47.9947 23.9379 47.979 24.1831C47.9632 24.4283 47.9957 24.6741 48.0746 24.9067C48.1535 25.1393 48.2772 25.3539 48.4388 25.5384C48.763 25.9103 49.2206 26.1379 49.7114 26.1713C50.2023 26.2046 50.6862 26.041 51.0573 25.7163V25.7534Z" fill="#A1B1BE"/>
<path d="M56.995 29.3718L61.1698 33.0275C61.5051 33.3275 61.9381 33.4937 62.3869 33.4947C62.6528 33.4942 62.9155 33.4364 63.1573 33.3251C63.3991 33.2138 63.6143 33.0516 63.7884 32.8496C63.9495 32.6647 64.0727 32.4497 64.1509 32.2168C64.2292 31.984 64.2611 31.7379 64.2446 31.4927C64.2282 31.2475 64.1638 31.008 64.0551 30.7878C63.9464 30.5677 63.7956 30.3712 63.6113 30.2097L59.4365 26.554C59.2521 26.3925 59.0378 26.2691 58.806 26.191C58.5741 26.1129 58.3292 26.0816 58.0853 26.0988C57.8414 26.1161 57.6032 26.1815 57.3845 26.2914C57.1657 26.4013 56.9707 26.5535 56.8106 26.7393C56.6492 26.9236 56.5259 27.1383 56.4478 27.3709C56.3697 27.6035 56.3382 27.8494 56.3554 28.0943C56.3725 28.3392 56.4379 28.5782 56.5477 28.7975C56.6575 29.0168 56.8095 29.212 56.995 29.3718Z" fill="#A1B1BE"/>
<path d="M65.3376 36.6909L69.5124 40.3466C69.8859 40.6722 70.3723 40.8362 70.8656 40.8029C71.3588 40.7695 71.8189 40.5416 72.1457 40.1687C72.4683 39.7935 72.6299 39.3051 72.5954 38.8105C72.5608 38.3158 72.3329 37.855 71.9613 37.5288L67.7865 33.8731C67.6026 33.7111 67.3887 33.5872 67.1571 33.5085C66.9255 33.4298 66.6807 33.3979 66.4368 33.4144C66.1929 33.4309 65.9546 33.4956 65.7356 33.6049C65.5166 33.7141 65.3212 33.8657 65.1606 34.051C64.8371 34.4253 64.6742 34.913 64.7074 35.4077C64.7405 35.9023 64.9671 36.3636 65.3376 36.6909Z" fill="#A1B1BE"/>
<path d="M73.0897 42.957C72.8615 43.1305 72.6762 43.3546 72.5482 43.6118C72.4203 43.8691 72.3532 44.1525 72.3521 44.4401C72.3536 44.7668 72.4428 45.087 72.6102 45.367C72.7449 45.6033 72.9297 45.8069 73.1516 45.9632C73.3734 46.1196 73.6267 46.225 73.8936 46.2717C73.999 46.2832 74.1054 46.2832 74.2108 46.2717H77.0064C77.3862 46.2727 77.7572 46.1565 78.0695 45.9391C78.3817 45.7216 78.6202 45.4131 78.7528 45.0552C78.8854 44.6974 78.9057 44.3073 78.8111 43.9374C78.7164 43.5676 78.5114 43.2358 78.2234 42.9867L76.1212 41.1477C75.9369 40.9862 75.7226 40.8629 75.4907 40.7848C75.2589 40.7067 75.014 40.6754 74.77 40.6926C74.5261 40.7098 74.2879 40.7752 74.0692 40.8852C73.8505 40.9951 73.6555 41.1473 73.4953 41.3331C73.3072 41.5537 73.1727 41.8152 73.1023 42.097C73.0319 42.3788 73.0276 42.6733 73.0897 42.957Z" fill="#A1B1BE"/>
<path d="M64.3489 46.3087H69.2909C69.7398 46.2515 70.1526 46.0317 70.4518 45.6904C70.7509 45.3491 70.916 44.9098 70.916 44.4549C70.916 44 70.7509 43.5607 70.4518 43.2195C70.1526 42.8782 69.7398 42.6583 69.2909 42.6011H64.3489C63.9 42.6583 63.4873 42.8782 63.1881 43.2195C62.889 43.5607 62.7239 44 62.7239 44.4549C62.7239 44.9098 62.889 45.3491 63.1881 45.6904C63.4873 46.0317 63.9 46.2515 64.3489 46.3087Z" fill="#A1B1BE"/>
<path d="M54.4797 46.3087H59.3922C59.8411 46.2515 60.2538 46.0317 60.553 45.6904C60.8522 45.3491 61.0172 44.9098 61.0172 44.4549C61.0172 44 60.8522 43.5607 60.553 43.2195C60.2538 42.8782 59.8411 42.6583 59.3922 42.6011H54.4576C54.0087 42.6583 53.5959 42.8782 53.2968 43.2195C52.9976 43.5607 52.8325 44 52.8325 44.4549C52.8325 44.9098 52.9976 45.3491 53.2968 45.6904C53.5959 46.0317 54.0087 46.2515 54.4576 46.3087H54.4797Z" fill="#A1B1BE"/>
<path d="M34.7268 46.3084H39.6688C40.1177 46.2512 40.5304 46.0314 40.8296 45.6901C41.1288 45.3488 41.2938 44.9095 41.2938 44.4546C41.2938 43.9997 41.1288 43.5604 40.8296 43.2191C40.5304 42.8779 40.1177 42.658 39.6688 42.6008H34.7268C34.465 42.5674 34.1992 42.5905 33.947 42.6684C33.6949 42.7463 33.462 42.8773 33.2641 43.0527C33.0662 43.228 32.9076 43.4437 32.799 43.6855C32.6904 43.9272 32.6343 44.1894 32.6343 44.4546C32.6343 44.7198 32.6904 44.982 32.799 45.2237C32.9076 45.4655 33.0662 45.6812 33.2641 45.8566C33.462 46.0319 33.6949 46.1629 33.947 46.2408C34.1992 46.3187 34.465 46.3418 34.7268 46.3084Z" fill="#A1B1BE"/>
<path d="M44.6401 46.3084H49.5747C49.8365 46.3418 50.1023 46.3187 50.3544 46.2408C50.6066 46.1629 50.8394 46.0319 51.0374 45.8566C51.2353 45.6812 51.3938 45.4655 51.5024 45.2237C51.611 44.982 51.6672 44.7198 51.6672 44.4546C51.6672 44.1894 51.611 43.9272 51.5024 43.6855C51.3938 43.4437 51.2353 43.228 51.0374 43.0527C50.8394 42.8773 50.6066 42.7463 50.3544 42.6684C50.1023 42.5905 49.8365 42.5674 49.5747 42.6008H44.6401C44.3784 42.5674 44.1126 42.5905 43.8604 42.6684C43.6082 42.7463 43.3754 42.8773 43.1774 43.0527C42.9795 43.228 42.821 43.4437 42.7124 43.6855C42.6038 43.9272 42.5476 44.1894 42.5476 44.4546C42.5476 44.7198 42.6038 44.982 42.7124 45.2237C42.821 45.4655 42.9795 45.6812 43.1774 45.8566C43.3754 46.0319 43.6082 46.1629 43.8604 46.2408C44.1126 46.3187 44.3784 46.3418 44.6401 46.3084Z" fill="#A1B1BE"/>
<path d="M31.3999 45.3671C31.5618 45.0851 31.6482 44.7657 31.6507 44.4402C31.6507 44.1524 31.584 43.8685 31.456 43.6111C31.328 43.3537 31.1421 43.1298 30.9131 42.9571C30.9675 42.675 30.9573 42.3842 30.8832 42.1066C30.809 41.8291 30.673 41.5722 30.4853 41.3554C30.3241 41.1707 30.1283 41.0197 29.9091 40.9111C29.6898 40.8025 29.4514 40.7385 29.2075 40.7226C28.9636 40.7068 28.719 40.7395 28.4877 40.8188C28.2563 40.8981 28.0428 41.0225 27.8594 41.1849L25.7572 43.0313C25.4751 43.2836 25.2758 43.6161 25.1856 43.9847C25.0954 44.3533 25.1186 44.7408 25.252 45.0959C25.3855 45.451 25.623 45.7571 25.9331 45.9737C26.2432 46.1902 26.6114 46.3071 26.989 46.3088H29.7772C29.8826 46.3203 29.9889 46.3203 30.0943 46.3088C30.3678 46.259 30.6268 46.1488 30.8527 45.9859C31.0785 45.823 31.2654 45.6116 31.3999 45.3671Z" fill="#A1B1BE"/>
<path d="M34.4759 40.3391L38.6213 36.6834C38.9918 36.3562 39.2184 35.8948 39.2515 35.4002C39.2847 34.9055 39.1218 34.4178 38.7983 34.0435C38.4716 33.6699 38.0106 33.4421 37.5168 33.4101C37.023 33.3782 36.5368 33.5446 36.1651 33.873L32.0197 37.5288C31.6503 37.857 31.4251 38.3189 31.3933 38.8135C31.3615 39.3081 31.5257 39.7953 31.85 40.1686C32.0112 40.3534 32.207 40.5043 32.4262 40.6129C32.6455 40.7215 32.8839 40.7855 33.1278 40.8014C33.3717 40.8172 33.6163 40.7846 33.8477 40.7052C34.079 40.6259 34.2925 40.5015 34.4759 40.3391Z" fill="#A1B1BE"/>
<path d="M42.7667 33.0277L46.912 29.372C47.282 29.046 47.5085 28.586 47.5416 28.0925C47.5748 27.5991 47.4121 27.1126 47.0891 26.7395C46.9284 26.5543 46.733 26.4027 46.514 26.2934C46.295 26.1842 46.0568 26.1194 45.8128 26.1029C45.5689 26.0863 45.3242 26.1183 45.0926 26.197C44.861 26.2758 44.6471 26.3996 44.4632 26.5616L40.3178 30.2173C39.9473 30.5445 39.7208 31.0059 39.6876 31.5005C39.6544 31.9952 39.8173 32.4829 40.1408 32.8572C40.3019 33.0419 40.4977 33.1929 40.717 33.3015C40.9362 33.4101 41.1746 33.4741 41.4185 33.4899C41.6624 33.5058 41.9071 33.4731 42.1384 33.3938C42.3697 33.3145 42.5832 33.1901 42.7667 33.0277Z" fill="#A1B1BE"/>
<path d="M22.9322 72.2179H47.657C47.4122 72.2179 47.1699 72.1694 46.9439 72.075C46.7179 71.9806 46.5127 71.8422 46.34 71.6679C46.1673 71.4936 46.0305 71.2868 45.9375 71.0592C45.8446 70.8316 45.7972 70.5878 45.7982 70.3418V68.4731H22.9322C22.4586 68.5031 22.014 68.7135 21.6891 69.0613C21.3642 69.4092 21.1833 69.8684 21.1833 70.3455C21.1833 70.8227 21.3642 71.2819 21.6891 71.6297C22.014 71.9776 22.4586 72.1879 22.9322 72.2179Z" fill="#A1B1BE"/>
<path d="M70.4566 68.4731H56.8034V69.4298C56.7465 69.881 56.5278 70.296 56.1883 70.5967C55.8488 70.8975 55.4119 71.0634 54.9594 71.0634C54.5069 71.0634 54.0699 70.8975 53.7304 70.5967C53.3909 70.296 53.1722 69.881 53.1153 69.4298V68.4731H49.5453V70.3418C49.5463 70.5878 49.4989 70.8316 49.4059 71.0592C49.313 71.2868 49.1762 71.4936 49.0035 71.6679C48.8308 71.8422 48.6256 71.9806 48.3996 72.075C48.1736 72.1694 47.9312 72.2179 47.6865 72.2179H80.488C80.9617 72.1879 81.4063 71.9776 81.7312 71.6297C82.0561 71.2819 82.2369 70.8227 82.2369 70.3455C82.2369 69.8684 82.0561 69.4092 81.7312 69.0613C81.4063 68.7135 80.9617 68.5031 80.488 68.4731H70.4566Z" fill="#A1B1BE"/>
<path d="M44.4557 52.5745H39.4768C39.0368 52.6432 38.6358 52.8678 38.3461 53.2078C38.0564 53.5478 37.8972 53.9807 37.8972 54.4283C37.8972 54.876 38.0564 55.3088 38.3461 55.6488C38.6358 55.9888 39.0368 56.2134 39.4768 56.2822H44.4852C44.7513 56.3237 45.0232 56.3069 45.2822 56.2328C45.5413 56.1588 45.7813 56.0292 45.9858 55.8531C46.1903 55.677 46.3545 55.4585 46.4671 55.2125C46.5796 54.9666 46.6379 54.6991 46.6379 54.4283C46.6379 54.1576 46.5796 53.89 46.4671 53.6441C46.3545 53.3981 46.1903 53.1796 45.9858 53.0035C45.7813 52.8274 45.5413 52.6978 45.2822 52.6238C45.0232 52.5497 44.7513 52.5329 44.4852 52.5745H44.4557Z" fill="#A1B1BE"/>
<path d="M59.5619 56.3193H64.5555C64.8216 56.3608 65.0935 56.344 65.3525 56.2699C65.6116 56.1959 65.8516 56.0664 66.0561 55.8903C66.2606 55.7142 66.4248 55.4955 66.5373 55.2496C66.6499 55.0037 66.7082 54.7362 66.7082 54.4654C66.7082 54.1947 66.6499 53.9272 66.5373 53.6813C66.4248 53.4353 66.2606 53.2168 66.0561 53.0407C65.8516 52.8645 65.6116 52.735 65.3525 52.6609C65.0935 52.5869 64.8216 52.57 64.5555 52.6116H59.5472C59.1072 52.6803 58.7061 52.905 58.4164 53.245C58.1267 53.5849 57.9675 54.0178 57.9675 54.4654C57.9675 54.9131 58.1267 55.346 58.4164 55.686C58.7061 56.026 59.1072 56.2505 59.5472 56.3193H59.5619Z" fill="#A1B1BE"/>
<path d="M49.5157 70.3421V63.3642H53.0858V69.43C53.1427 69.8813 53.3613 70.2962 53.7008 70.597C54.0403 70.8977 54.4773 71.0637 54.9298 71.0637C55.3823 71.0637 55.8193 70.8977 56.1588 70.597C56.4982 70.2962 56.7169 69.8813 56.7738 69.43V61.503C56.7748 61.2569 56.7274 61.0132 56.6344 60.7856C56.5415 60.558 56.4047 60.3512 56.232 60.1769C56.0593 60.0025 55.8541 59.8643 55.6281 59.7699C55.4021 59.6755 55.1597 59.627 54.915 59.627H47.6274C47.3827 59.627 47.1404 59.6755 46.9144 59.7699C46.6884 59.8643 46.4832 60.0025 46.3105 60.1769C46.1378 60.3512 46.001 60.558 45.908 60.7856C45.815 61.0132 45.7677 61.2569 45.7687 61.503V70.3421C45.7355 70.6052 45.7584 70.8724 45.8359 71.126C45.9134 71.3795 46.0437 71.6135 46.2181 71.8125C46.3926 72.0115 46.6071 72.1709 46.8476 72.2801C47.088 72.3892 47.3489 72.4457 47.6127 72.4457C47.8765 72.4457 48.1373 72.3892 48.3778 72.2801C48.6182 72.1709 48.8328 72.0115 49.0072 71.8125C49.1817 71.6135 49.3119 71.3795 49.3895 71.126C49.4669 70.8724 49.4899 70.6052 49.4567 70.3421H49.5157Z" fill="#A1B1BE"/>
</g>
<defs>
<clipPath id="clip0_324_2697">
<rect width="89" height="123" fill="white"/>
</clipPath>
</defs>
</svg>
