<svg width="150" height="118" viewBox="0 0 150 118" fill="none" xmlns="http://www.w3.org/2000/svg">
<g clip-path="url(#clip0_324_2458)">
<path d="M26.0883 44.6836H25.6919C25.7614 44.7353 25.8249 44.7943 25.8811 44.8597L26.0883 44.6836Z" fill="#A1B1BE"/>
<path d="M127.166 58.2817H124.643V113.578H129.147V57.084C128.959 57.4407 128.676 57.7406 128.326 57.9516C127.977 58.1626 127.576 58.2767 127.166 58.2817Z" fill="#A1B1BE"/>
<path d="M26.9507 113.579V58.2818H24.9418C24.6429 58.2829 24.3467 58.2264 24.0702 58.1154C23.7937 58.0044 23.5424 57.8411 23.3306 57.6349C23.1189 57.4287 22.9508 57.1836 22.8362 56.9138C22.7215 56.644 22.6625 56.3547 22.6625 56.0625H22.4103V113.579H26.9507Z" fill="#A1B1BE"/>
<path d="M34.0218 56.0611C34.0218 55.4725 33.7826 54.908 33.3569 54.4918C32.9311 54.0757 32.3537 53.8418 31.7516 53.8418H24.9409C24.6212 53.8022 24.2966 53.8296 23.9886 53.9221C23.6806 54.0147 23.3963 54.1702 23.1545 54.3785C22.9127 54.5868 22.7191 54.8429 22.5864 55.13C22.4538 55.4171 22.3853 55.7285 22.3853 56.0435C22.3853 56.3585 22.4538 56.6699 22.5864 56.957C22.7191 57.244 22.9127 57.5002 23.1545 57.7085C23.3963 57.9168 23.6806 58.0723 23.9886 58.1649C24.2966 58.2574 24.6212 58.2848 24.9409 58.2451H31.7516C32.3482 58.2475 32.9216 58.0193 33.3468 57.6102C33.772 57.2011 34.0146 56.6443 34.0218 56.0611Z" fill="#A1B1BE"/>
<path d="M38.5734 58.2803H45.3661C45.9143 58.2124 46.4184 57.9512 46.7838 57.5459C47.1492 57.1406 47.3508 56.6189 47.3508 56.0786C47.3508 55.5384 47.1492 55.0167 46.7838 54.6114C46.4184 54.206 45.9143 53.9449 45.3661 53.877H38.5464C38.2267 53.8374 37.9021 53.8647 37.5941 53.9573C37.2861 54.0498 37.0017 54.2054 36.76 54.4136C36.5182 54.6219 36.3246 54.8781 36.192 55.1652C36.0593 55.4522 35.9907 55.7636 35.9907 56.0786C35.9907 56.3936 36.0593 56.705 36.192 56.9921C36.3246 57.2792 36.5182 57.5354 36.76 57.7436C37.0017 57.9519 37.2861 58.1075 37.5941 58.2C37.9021 58.2925 38.2267 58.3199 38.5464 58.2803H38.5734Z" fill="#A1B1BE"/>
<path d="M93.1118 58.2823H99.9225C100.471 58.2143 100.975 57.9532 101.34 57.5479C101.706 57.1425 101.907 56.6209 101.907 56.0806C101.907 55.5403 101.706 55.0186 101.34 54.6133C100.975 54.208 100.471 53.9469 99.9225 53.8789H93.1118C92.7921 53.8393 92.4675 53.8667 92.1595 53.9592C91.8515 54.0518 91.5672 54.2073 91.3254 54.4156C91.0836 54.6239 90.89 54.88 90.7574 55.1671C90.6248 55.4542 90.5562 55.7656 90.5562 56.0806C90.5562 56.3956 90.6248 56.707 90.7574 56.9941C90.89 57.2811 91.0836 57.5373 91.3254 57.7456C91.5672 57.9538 91.8515 58.1094 92.1595 58.2019C92.4675 58.2945 92.7921 58.3219 93.1118 58.2823Z" fill="#A1B1BE"/>
<path d="M106.725 58.2804H113.536C113.977 58.2813 114.41 58.1557 114.779 57.9193C114.788 57.5583 114.886 57.2048 115.064 56.8889C115.243 56.573 115.498 56.3041 115.806 56.1051V56.0611C115.806 55.4725 115.567 54.908 115.141 54.4918C114.715 54.0757 114.138 53.8418 113.536 53.8418H106.725C106.405 53.8022 106.081 53.8296 105.773 53.9221C105.465 54.0147 105.18 54.1702 104.939 54.3785C104.697 54.5868 104.503 54.8429 104.371 55.13C104.238 55.4171 104.169 55.7285 104.169 56.0435C104.169 56.3585 104.238 56.6699 104.371 56.957C104.503 57.244 104.697 57.5002 104.939 57.7085C105.18 57.9168 105.465 58.0723 105.773 58.1649C106.081 58.2574 106.405 58.2847 106.725 58.2451V58.2804Z" fill="#A1B1BE"/>
<path d="M52.2022 58.2823H59.0129C59.5611 58.2143 60.0652 57.9532 60.4306 57.5479C60.796 57.1425 60.9976 56.6209 60.9976 56.0806C60.9976 55.5403 60.796 55.0186 60.4306 54.6133C60.0652 54.208 59.5611 53.9469 59.0129 53.8789H52.2022C51.8825 53.8393 51.5579 53.8667 51.2499 53.9592C50.9418 54.0518 50.6575 54.2073 50.4157 54.4156C50.174 54.6239 49.9804 54.88 49.8477 55.1671C49.7151 55.4542 49.6465 55.7656 49.6465 56.0806C49.6465 56.3956 49.7151 56.707 49.8477 56.9941C49.9804 57.2811 50.174 57.5373 50.4157 57.7456C50.6575 57.9538 50.9418 58.1094 51.2499 58.2019C51.5579 58.2945 51.8825 58.3219 52.2022 58.2823Z" fill="#A1B1BE"/>
<path d="M65.834 58.2803H72.6447C73.193 58.2124 73.697 57.9512 74.0624 57.5459C74.4278 57.1406 74.6295 56.6189 74.6295 56.0786C74.6295 55.5384 74.4278 55.0167 74.0624 54.6114C73.697 54.206 73.193 53.9449 72.6447 53.877H65.834C65.5143 53.8374 65.1897 53.8647 64.8817 53.9573C64.5737 54.0498 64.2893 54.2054 64.0476 54.4136C63.8058 54.6219 63.6122 54.8781 63.4796 55.1652C63.3469 55.4522 63.2783 55.7636 63.2783 56.0786C63.2783 56.3936 63.3469 56.705 63.4796 56.9921C63.6122 57.2792 63.8058 57.5354 64.0476 57.7436C64.2893 57.9519 64.5737 58.1075 64.8817 58.2C65.1897 58.2925 65.5143 58.3199 65.834 58.2803Z" fill="#A1B1BE"/>
<path d="M79.4644 58.2803H86.275C86.5947 58.3199 86.9193 58.2925 87.2274 58.2C87.5354 58.1075 87.8197 57.9519 88.0615 57.7436C88.3032 57.5354 88.4969 57.2792 88.6295 56.9921C88.7621 56.705 88.8307 56.3936 88.8307 56.0786C88.8307 55.7636 88.7621 55.4522 88.6295 55.1652C88.4969 54.8781 88.3032 54.6219 88.0615 54.4136C87.8197 54.2054 87.5354 54.0498 87.2274 53.9573C86.9193 53.8647 86.5947 53.8374 86.275 53.877H79.4644C79.1447 53.8374 78.8201 53.8647 78.5121 53.9573C78.2041 54.0498 77.9197 54.2054 77.6779 54.4136C77.4362 54.6219 77.2426 54.8781 77.1099 55.1652C76.9773 55.4522 76.9087 55.7636 76.9087 56.0786C76.9087 56.3936 76.9773 56.705 77.1099 56.9921C77.2426 57.2792 77.4362 57.5354 77.6779 57.7436C77.9197 57.9519 78.2041 58.1075 78.5121 58.2C78.8201 58.2925 79.1447 58.3199 79.4644 58.2803Z" fill="#A1B1BE"/>
<path d="M115.211 38.9328L120.346 43.3361C120.571 43.5279 120.833 43.6744 121.116 43.7671C121.399 43.8599 121.698 43.8971 121.996 43.8766C122.294 43.8562 122.585 43.7785 122.852 43.6479C123.119 43.5174 123.357 43.3366 123.553 43.116C123.75 42.8964 123.9 42.641 123.996 42.3645C124.091 42.088 124.13 41.7958 124.11 41.5046C124.09 41.2133 124.011 40.9288 123.879 40.6674C123.746 40.4059 123.562 40.1726 123.337 39.9808L118.193 35.5775C117.737 35.1924 117.144 34.9994 116.543 35.0406C115.942 35.0819 115.382 35.3541 114.986 35.7977C114.789 36.0178 114.639 36.2736 114.545 36.5505C114.45 36.8273 114.412 37.1197 114.433 37.4109C114.454 37.7022 114.533 37.9865 114.667 38.2477C114.8 38.5088 114.985 38.7417 115.211 38.9328Z" fill="#A1B1BE"/>
<path d="M84.3833 12.6731L89.5184 17.0764C89.7436 17.2682 90.0053 17.4146 90.2884 17.5074C90.5716 17.6001 90.8707 17.6373 91.1686 17.6169C91.4666 17.5964 91.7575 17.5187 92.0246 17.3882C92.2918 17.2576 92.5299 17.0769 92.7255 16.8562C92.9217 16.6361 93.0715 16.3803 93.1664 16.1034C93.2613 15.8266 93.2994 15.5342 93.2784 15.2429C93.2575 14.9517 93.178 14.6674 93.0445 14.4062C92.9109 14.145 92.726 13.9122 92.5003 13.721L87.3653 9.31774C86.9094 8.93263 86.3162 8.73961 85.7152 8.78087C85.1142 8.82213 84.5544 9.0943 84.1581 9.5379C83.9619 9.75804 83.8121 10.0138 83.7172 10.2907C83.6224 10.5675 83.5843 10.8599 83.6052 11.1512C83.6261 11.4424 83.7056 11.7267 83.8391 11.9879C83.9727 12.2491 84.1576 12.4819 84.3833 12.6731Z" fill="#A1B1BE"/>
<path d="M125.49 47.6876L130.625 52.0909C131.036 52.4433 131.565 52.6374 132.112 52.6369C132.437 52.6381 132.759 52.5711 133.056 52.4405C133.353 52.3098 133.617 52.1186 133.832 51.8795C134.225 51.4341 134.423 50.8554 134.382 50.2686C134.342 49.6818 134.066 49.1343 133.616 48.7444L128.472 44.3411C128.017 43.9549 127.425 43.7604 126.824 43.8C126.223 43.8396 125.662 44.1101 125.265 44.5524C124.871 44.998 124.673 45.5779 124.716 46.1654C124.758 46.7529 125.036 47.3002 125.49 47.6876Z" fill="#A1B1BE"/>
<path d="M94.6518 21.4338L99.7958 25.8371C100.209 26.194 100.74 26.3913 101.291 26.3919C101.614 26.3929 101.933 26.3257 102.227 26.195C102.521 26.0643 102.783 25.8731 102.994 25.6345C103.191 25.4142 103.342 25.1582 103.437 24.8809C103.533 24.6037 103.572 24.3107 103.552 24.0188C103.532 23.7269 103.453 23.4416 103.32 23.1794C103.187 22.9172 103.003 22.6831 102.778 22.4906L97.6428 18.0873C97.1869 17.7022 96.5937 17.5091 95.9927 17.5504C95.3917 17.5917 94.8319 17.8638 94.4356 18.3074C94.0433 18.7514 93.8461 19.3287 93.8865 19.914C93.927 20.4994 94.202 21.0454 94.6518 21.4338Z" fill="#A1B1BE"/>
<path d="M20.5474 52.3813L25.6734 47.9779C25.8978 47.7856 26.0813 47.5518 26.2132 47.29C26.3451 47.0282 26.4229 46.7436 26.4421 46.4524C26.4614 46.1612 26.4217 45.8691 26.3254 45.5929C26.229 45.3167 26.0778 45.0618 25.8806 44.8428C25.8244 44.7774 25.7609 44.7183 25.6914 44.6667C25.2757 44.3052 24.7388 44.1055 24.1824 44.1055C23.6261 44.1055 23.0891 44.3052 22.6734 44.6667L17.5565 49.07C17.3314 49.2617 17.1472 49.4951 17.0145 49.7565C16.8817 50.018 16.8031 50.3025 16.783 50.5937C16.7629 50.8849 16.8018 51.1772 16.8974 51.4537C16.993 51.7302 17.1435 51.9855 17.3403 52.2051C17.5557 52.4406 17.8194 52.6289 18.1144 52.7579C18.4093 52.8869 18.7288 52.9536 19.0519 52.9537C19.6054 52.949 20.1378 52.7452 20.5474 52.3813Z" fill="#A1B1BE"/>
<path d="M133.985 53.8434C133.666 53.8038 133.341 53.8312 133.033 53.9237C132.725 54.0162 132.441 54.1718 132.199 54.3801C131.957 54.5883 131.764 54.8445 131.631 55.1316C131.498 55.4187 131.43 55.7301 131.43 56.0451C131.43 56.3601 131.498 56.6715 131.631 56.9585C131.764 57.2456 131.957 57.5018 132.199 57.7101C132.441 57.9183 132.725 58.0739 133.033 58.1664C133.341 58.259 133.666 58.2863 133.985 58.2467H138.778C139.239 58.2455 139.688 58.1074 140.066 57.8506C140.445 57.5939 140.734 57.2307 140.897 56.8093C141.059 56.3879 141.086 55.9282 140.975 55.4913C140.864 55.0543 140.619 54.6608 140.273 54.363L138.751 53.0596C138.526 52.8679 138.264 52.7214 137.981 52.6286C137.698 52.5359 137.399 52.4987 137.101 52.5191C136.803 52.5396 136.512 52.6173 136.245 52.7478C135.978 52.8784 135.739 53.0591 135.544 53.2798C135.399 53.4368 135.281 53.6152 135.193 53.8082L133.985 53.8434Z" fill="#A1B1BE"/>
<path d="M39.5448 35.3667C40.0984 35.3658 40.633 35.1687 41.0493 34.8119L46.1663 30.4086C46.6188 30.02 46.8955 29.4721 46.936 28.8846C46.9766 28.2972 46.7775 27.7179 46.3825 27.2735C46.1864 27.053 45.9475 26.8728 45.6797 26.7432C45.4119 26.6135 45.1204 26.5371 44.8221 26.5183C44.5239 26.4994 44.2248 26.5386 43.9421 26.6334C43.6595 26.7283 43.3989 26.877 43.1754 27.0709L38.0494 31.4742C37.8249 31.6666 37.6415 31.9004 37.5096 32.1622C37.3776 32.4239 37.2998 32.7086 37.2806 32.9998C37.2614 33.291 37.301 33.5831 37.3974 33.8593C37.4938 34.1354 37.6449 34.3904 37.8422 34.6094C38.0535 34.848 38.315 35.0391 38.6089 35.1698C38.9027 35.3006 39.222 35.3677 39.5448 35.3667Z" fill="#A1B1BE"/>
<path d="M61.5819 17.2429L66.7079 12.8396C67.1591 12.4498 67.4342 11.9013 67.473 11.3138C67.5118 10.7264 67.3112 10.1478 66.9151 9.70448C66.7189 9.48444 66.4803 9.30439 66.2128 9.17465C65.9454 9.04491 65.6543 8.96802 65.3564 8.94839C65.0585 8.92875 64.7595 8.96676 64.4767 9.06023C64.1938 9.1537 63.9326 9.30081 63.708 9.49312L58.5819 13.8964C58.1308 14.2863 57.8557 14.8348 57.8169 15.4222C57.7781 16.0097 57.9786 16.5882 58.3748 17.0316C58.5882 17.2699 58.8515 17.4609 59.1467 17.5915C59.4419 17.7221 59.7624 17.7895 60.0865 17.7889C60.637 17.7949 61.1701 17.6002 61.5819 17.2429Z" fill="#A1B1BE"/>
<path d="M51.2932 26.0312L56.4192 21.6279C56.8717 21.2393 57.1484 20.6914 57.189 20.1039C57.2295 19.5165 57.0305 18.9372 56.6354 18.4928C56.2366 18.0517 55.6755 17.7828 55.0746 17.7449C54.4737 17.7069 53.8818 17.903 53.4283 18.2902L48.3023 22.6935C48.0775 22.8845 47.8935 23.1171 47.7609 23.3778C47.6283 23.6385 47.5497 23.9223 47.5296 24.2128C47.5095 24.5033 47.5483 24.7948 47.6438 25.0706C47.7393 25.3464 47.8896 25.601 48.0861 25.8199C48.4836 26.2622 49.0441 26.5327 49.645 26.5723C50.246 26.6119 50.8385 26.4174 51.2932 26.0312Z" fill="#A1B1BE"/>
<path d="M18.1227 53.8435H15.7984L15.6363 53.6409C15.4395 53.4215 15.2003 53.2422 14.9325 53.1132C14.6647 52.9843 14.3736 52.9082 14.0757 52.8894C13.7778 52.8706 13.479 52.9094 13.1965 53.0036C12.9139 53.0978 12.6532 53.2455 12.4291 53.4384L11.303 54.3983C10.9576 54.6961 10.713 55.0896 10.6017 55.5265C10.4904 55.9635 10.5177 56.4231 10.6799 56.8446C10.8422 57.266 11.1318 57.6291 11.5102 57.8859C11.8886 58.1426 12.3379 58.2808 12.7985 58.282H18.1227C18.4424 58.3216 18.767 58.2942 19.075 58.2017C19.383 58.1092 19.6674 57.9536 19.9091 57.7453C20.1509 57.5371 20.3445 57.2809 20.4771 56.9938C20.6098 56.7067 20.6784 56.3953 20.6784 56.0803C20.6784 55.7653 20.6098 55.4539 20.4771 55.1669C20.3445 54.8798 20.1509 54.6236 19.9091 54.4153C19.6674 54.2071 19.383 54.0515 19.075 53.959C18.767 53.8665 18.4424 53.8391 18.1227 53.8787V53.8435Z" fill="#A1B1BE"/>
<path d="M30.799 43.5915L35.916 39.1882C36.1411 38.9964 36.3253 38.7631 36.458 38.5016C36.5907 38.2402 36.6694 37.9557 36.6895 37.6644C36.7095 37.3732 36.6706 37.081 36.575 36.8045C36.4794 36.5279 36.329 36.2726 36.1322 36.053C35.9354 35.8336 35.6963 35.6543 35.4285 35.5253C35.1607 35.3964 34.8695 35.3203 34.5716 35.3015C34.2737 35.2827 33.975 35.3215 33.6924 35.4157C33.4099 35.5099 33.1491 35.6576 32.9251 35.8505L27.7991 40.2538C27.5749 40.4454 27.3917 40.6784 27.2599 40.9394C27.1281 41.2005 27.0504 41.4844 27.0311 41.7749C27.0118 42.0654 27.0514 42.3567 27.1477 42.6322C27.2439 42.9077 27.3949 43.1618 27.5919 43.3801C27.7887 43.5995 28.0278 43.7788 28.2956 43.9078C28.5634 44.0368 28.8546 44.1128 29.1525 44.1316C29.4504 44.1505 29.7491 44.1116 30.0317 44.0174C30.3142 43.9232 30.575 43.7755 30.799 43.5827V43.5915Z" fill="#A1B1BE"/>
<path d="M71.796 8.46268L75.5977 5.20423L79.2012 8.30416C79.657 8.68927 80.2503 8.88229 80.8512 8.84103C81.4522 8.79977 82.012 8.5276 82.4083 8.084C82.605 7.86442 82.7556 7.60905 82.8512 7.33254C82.9468 7.05603 82.9856 6.76378 82.9655 6.47256C82.9455 6.18133 82.8668 5.89685 82.7341 5.63538C82.6014 5.37392 82.4172 5.14061 82.1921 4.94883L77.0481 0.545519C76.6189 0.179114 76.064 -0.0153775 75.4944 0.000950757C74.9248 0.017279 74.3826 0.243229 73.9761 0.633591L73.886 0.704045L68.76 5.10736C68.3061 5.49746 68.0293 6.04782 67.9904 6.6374C67.9516 7.22698 68.1539 7.8075 68.5528 8.25131C68.7496 8.47073 68.9887 8.65005 69.2565 8.779C69.5243 8.90796 69.8155 8.98402 70.1134 9.00284C70.4113 9.02165 70.71 8.98284 70.9926 8.88864C71.2751 8.79444 71.5359 8.64671 71.7599 8.45387L71.796 8.46268Z" fill="#A1B1BE"/>
<path d="M104.932 30.1874L110.076 34.5907C110.485 34.947 111.014 35.1443 111.562 35.1455C111.887 35.1449 112.208 35.0762 112.503 34.944C112.799 34.8119 113.061 34.6193 113.274 34.3793C113.471 34.1598 113.621 33.9044 113.717 33.6279C113.812 33.3514 113.851 33.0591 113.831 32.7679C113.811 32.4767 113.733 32.1922 113.6 31.9307C113.467 31.6693 113.283 31.436 113.058 31.2442L107.923 26.8409C107.698 26.6491 107.436 26.5026 107.153 26.4099C106.87 26.3171 106.57 26.2799 106.272 26.3004C105.975 26.3208 105.684 26.3985 105.417 26.5291C105.149 26.6596 104.911 26.8404 104.716 27.061C104.321 27.504 104.122 28.0819 104.163 28.6679C104.203 29.2539 104.48 29.8003 104.932 30.1874Z" fill="#A1B1BE"/>
<path d="M127.164 53.8418H120.353C119.762 53.8416 119.194 54.0669 118.77 54.4699C118.346 54.8728 118.099 55.4216 118.083 55.9994C118.454 56.1841 118.765 56.4652 118.983 56.8117C119.2 57.1581 119.316 57.5566 119.317 57.9633V58.0337C119.637 58.1968 119.993 58.2814 120.353 58.2803H127.164C127.484 58.3199 127.808 58.2926 128.116 58.2C128.424 58.1075 128.709 57.9519 128.95 57.7437C129.192 57.5354 129.386 57.2792 129.518 56.9921C129.651 56.7051 129.72 56.3937 129.72 56.0787C129.72 55.7637 129.651 55.4523 129.518 55.1652C129.386 54.8781 129.192 54.6219 128.95 54.4137C128.709 54.2054 128.424 54.0499 128.116 53.9573C127.808 53.8648 127.484 53.8374 127.164 53.877V53.8418Z" fill="#A1B1BE"/>
<path d="M60.591 70.2148H42.0149C41.4128 70.2148 40.8353 70.4486 40.4096 70.8648C39.9838 71.281 39.7446 71.8455 39.7446 72.4341V90.2587C39.7435 90.5509 39.8013 90.8404 39.9149 91.1107C40.0284 91.3809 40.1955 91.6266 40.4064 91.8337C40.6173 92.0407 40.8679 92.2049 41.144 92.317C41.42 92.4291 41.716 92.4868 42.0149 92.4868H60.591C61.1955 92.4868 61.7752 92.252 62.2027 91.8342C62.6301 91.4164 62.8702 90.8496 62.8702 90.2587V72.4341C62.8679 71.8447 62.6267 71.2802 62.1995 70.8643C61.7723 70.4484 61.194 70.2148 60.591 70.2148ZM58.3208 88.0394H44.2851V74.6534H58.3208V88.0394Z" fill="#A1B1BE"/>
<path d="M103.715 70.2149H85.1391C84.8402 70.2137 84.544 70.2702 84.2675 70.3812C83.9911 70.4923 83.7398 70.6555 83.528 70.8617C83.3162 71.0679 83.1482 71.313 83.0336 71.5828C82.9189 71.8526 82.8599 72.1419 82.8599 72.4341V90.2587C82.8599 90.8496 83.1 91.4164 83.5274 91.8342C83.9549 92.2521 84.5346 92.4868 85.1391 92.4868H103.715C104.013 92.4856 104.308 92.4271 104.583 92.3145C104.858 92.2019 105.108 92.0375 105.318 91.8306C105.528 91.6237 105.694 91.3784 105.807 91.1087C105.92 90.839 105.978 90.5501 105.976 90.2587V72.4341C105.978 72.1431 105.92 71.8547 105.807 71.5855C105.694 71.3163 105.527 71.0716 105.317 70.8654C105.107 70.6592 104.858 70.4956 104.583 70.384C104.308 70.2723 104.013 70.2149 103.715 70.2149ZM101.436 88.0394H87.4003V74.6534H101.436V88.0394Z" fill="#A1B1BE"/>
<path d="M119.318 57.9654C119.311 57.3789 119.069 56.8184 118.645 56.4037C118.221 55.989 117.648 55.753 117.048 55.7461C116.635 55.7484 116.231 55.8578 115.876 56.0631L115.804 56.1072C115.496 56.3061 115.242 56.575 115.063 56.8909C114.884 57.2068 114.786 57.5604 114.777 57.9213V113.579H119.282V57.9654H119.318Z" fill="#A1B1BE"/>
<path d="M147.444 113.578H2.55567C2.23599 113.539 1.91139 113.566 1.60337 113.658C1.29536 113.751 1.011 113.907 0.769246 114.115C0.527493 114.323 0.333879 114.579 0.201247 114.866C0.068614 115.153 0 115.465 0 115.78C0 116.095 0.068614 116.406 0.201247 116.693C0.333879 116.98 0.527493 117.237 0.769246 117.445C1.011 117.653 1.29536 117.809 1.60337 117.901C1.91139 117.994 2.23599 118.021 2.55567 117.981H147.444C147.764 118.021 148.089 117.994 148.397 117.901C148.705 117.809 148.989 117.653 149.231 117.445C149.473 117.237 149.666 116.98 149.799 116.693C149.931 116.406 150 116.095 150 115.78C150 115.465 149.931 115.153 149.799 114.866C149.666 114.579 149.473 114.323 149.231 114.115C148.989 113.907 148.705 113.751 148.397 113.658C148.089 113.566 147.764 113.539 147.444 113.578Z" fill="#A1B1BE"/>
</g>
<defs>
<clipPath id="clip0_324_2458">
<rect width="150" height="118" fill="white"/>
</clipPath>
</defs>
</svg>
