<svg width="120" height="120" viewBox="0 0 120 120" fill="none" xmlns="http://www.w3.org/2000/svg">
<g clip-path="url(#clip0_324_2814)">
<path d="M118.177 28.543H33.9145V32.1615H116.346V115.75H28.1476C26.2013 117.458 23.8891 118.696 21.3892 119.369H118.177C118.66 119.369 119.124 119.177 119.466 118.835C119.808 118.493 120 118.029 120 117.545V30.3667C120 29.883 119.808 29.4192 119.466 29.0771C119.124 28.7351 118.66 28.543 118.177 28.543Z" fill="#A1B1BE"/>
<path d="M28.1476 115.75C29.9632 114.163 31.4189 112.206 32.4172 110.011C33.4156 107.815 33.9334 105.432 33.9363 103.02V16.971C33.9363 12.47 32.1486 8.15339 28.9664 4.9707C25.7843 1.78802 21.4684 0 16.9682 0C12.4679 0 8.15191 1.78802 4.96976 4.9707C1.78761 8.15339 2.71569e-05 12.47 2.71569e-05 16.971V103.02C-0.00581767 106.286 0.931915 109.484 2.70042 112.23C4.46892 114.976 6.99285 117.152 9.96864 118.496C12.9444 119.841 16.2453 120.298 19.4742 119.81C22.7032 119.323 25.7226 117.913 28.1693 115.75H28.1476ZM16.9464 119.839C13.8772 119.842 10.8675 118.992 8.2533 117.383C5.63909 115.775 3.52325 113.472 2.14165 110.731C0.76005 107.989 0.167173 104.918 0.429129 101.86C0.691084 98.8012 1.79763 95.8756 3.62522 93.4094V16.971C3.62522 13.4374 5.02865 10.0485 7.52688 7.54988C10.0251 5.05124 13.4134 3.64751 16.9464 3.64751C20.4795 3.64751 23.8678 5.05124 26.366 7.54988C28.8642 10.0485 30.2677 13.4374 30.2677 16.971V93.4094C32.0925 95.8763 33.1967 98.8015 33.4572 101.859C33.7178 104.917 33.1244 107.986 31.7433 110.727C30.3622 113.467 28.2476 115.77 25.635 117.379C23.0224 118.988 20.0146 119.839 16.9464 119.839Z" fill="#A1B1BE"/>
<path d="M33.5166 103.259C33.5166 99.9794 32.5443 96.7735 30.7224 94.0467C28.9006 91.32 26.311 89.1948 23.2814 87.9401C20.2519 86.6854 16.9184 86.3575 13.7025 86.9978C10.4866 87.6382 7.53277 89.218 5.21466 91.5375C2.89655 93.857 1.31833 96.812 0.679507 100.029C0.0406804 103.245 0.369869 106.579 1.62569 109.609C2.8815 112.638 5.00741 115.227 7.73451 117.048C10.4616 118.869 13.6675 119.841 16.9465 119.839C19.1239 119.842 21.2806 119.415 23.2927 118.583C25.3049 117.75 27.133 116.529 28.6723 114.989C30.2117 113.449 31.432 111.62 32.2632 109.607C33.0945 107.594 33.5204 105.437 33.5166 103.259ZM16.9465 116.192C14.3885 116.195 11.887 115.438 9.75865 114.019C7.63033 112.6 5.97086 110.581 4.98995 108.218C4.00905 105.855 3.75088 103.254 4.24817 100.745C4.74546 98.2351 5.97583 95.9294 7.78362 94.1193C9.59141 92.3091 11.8954 91.076 14.404 90.5758C16.9127 90.0756 19.5134 90.3309 21.877 91.3093C24.2406 92.2877 26.2609 93.9453 27.6823 96.0724C29.1038 98.1995 29.8626 100.7 29.8626 103.259C29.8588 106.685 28.4972 109.97 26.0762 112.394C23.6552 114.819 20.3722 116.184 16.9465 116.192Z" fill="#A1B1BE"/>
<path d="M16.9464 95.1826C15.213 95.1812 13.5181 95.694 12.0761 96.6561C10.6341 97.6183 9.50989 98.9865 8.84556 100.588C8.18122 102.189 8.00674 103.952 8.34403 105.652C8.68132 107.353 9.5152 108.915 10.7404 110.141C11.9656 111.368 13.527 112.203 15.227 112.542C16.927 112.881 18.6893 112.708 20.2909 112.044C21.8924 111.381 23.2613 110.258 24.2245 108.817C25.1877 107.375 25.7019 105.68 25.7019 103.947C25.7 101.624 24.7771 99.3972 23.1357 97.7542C21.4944 96.1113 19.2685 95.1865 16.9464 95.1826ZM16.9464 109.056C15.9357 109.058 14.9473 108.759 14.1062 108.199C13.2652 107.638 12.6093 106.841 12.2215 105.907C11.8337 104.974 11.7316 103.946 11.9279 102.954C12.1242 101.963 12.6102 101.052 13.3244 100.336C14.0385 99.6211 14.9486 99.1338 15.9398 98.9361C16.9309 98.7383 17.9585 98.8391 18.8924 99.2256C19.8263 99.6121 20.6245 100.267 21.1862 101.107C21.7478 101.948 22.0477 102.936 22.0477 103.947C22.0458 105.3 21.5078 106.597 20.5518 107.555C19.5957 108.513 18.2994 109.052 16.9464 109.056Z" fill="#A1B1BE"/>
<path d="M105.391 60.8207V62.753C105.447 63.1935 105.661 63.5985 105.994 63.892C106.327 64.1855 106.756 64.3475 107.2 64.3475C107.644 64.3475 108.072 64.1855 108.405 63.892C108.738 63.5985 108.953 63.1935 109.009 62.753V39.7318C109.009 39.2481 108.817 38.7842 108.475 38.4422C108.133 38.1002 107.669 37.908 107.185 37.908H85.4776C85.2208 37.8755 84.96 37.898 84.7126 37.974C84.4652 38.0501 84.2369 38.1779 84.0428 38.349C83.8486 38.5202 83.693 38.7307 83.5864 38.9666C83.4799 39.2026 83.4248 39.4584 83.4248 39.7173C83.4248 39.9762 83.4799 40.2321 83.5864 40.468C83.693 40.7039 83.8486 40.9144 84.0428 41.0856C84.2369 41.2567 84.4652 41.3846 84.7126 41.4606C84.96 41.5366 85.2208 41.5591 85.4776 41.5266H105.391V60.8207Z" fill="#A1B1BE"/>
<path d="M87.4819 105.923H85.5499C85.0852 105.952 84.649 106.157 84.3303 106.497C84.0116 106.836 83.8342 107.284 83.8342 107.75C83.8342 108.216 84.0116 108.664 84.3303 109.003C84.649 109.343 85.0852 109.548 85.5499 109.577H107.258C107.741 109.577 108.205 109.385 108.547 109.043C108.889 108.701 109.081 108.237 109.081 107.753V87.2146C109.025 86.7741 108.811 86.3692 108.478 86.0756C108.145 85.7821 107.716 85.6201 107.272 85.6201C106.828 85.6201 106.399 85.7821 106.066 86.0756C105.733 86.3692 105.519 86.7741 105.463 87.2146V105.923H87.4819Z" fill="#A1B1BE"/>
<path d="M73.3357 98.5477V96.7529C72.8904 96.8326 72.4906 97.075 72.2141 97.433C71.9375 97.7909 71.8038 98.2389 71.839 98.69C71.8742 99.141 72.0758 99.5629 72.4045 99.8736C72.7332 100.184 73.1657 100.362 73.618 100.371H75.1591C74.6761 100.37 74.2134 100.177 73.8718 99.8352C73.5303 99.4936 73.3376 99.0308 73.3357 98.5477Z" fill="#A1B1BE"/>
<path d="M58.589 96.7241H53.5744C53.1097 96.7534 52.6737 96.9587 52.3549 97.2981C52.0362 97.6376 51.8589 98.0858 51.8589 98.5515C51.8589 99.0172 52.0362 99.4654 52.3549 99.8049C52.6737 100.144 53.1097 100.35 53.5744 100.379H58.589C59.0537 100.35 59.4898 100.144 59.8085 99.8049C60.1272 99.4654 60.3045 99.0172 60.3045 98.5515C60.3045 98.0858 60.1272 97.6376 59.8085 97.2981C59.4898 96.9587 59.0537 96.7534 58.589 96.7241Z" fill="#A1B1BE"/>
<path d="M68.6033 96.7238H63.5961C63.3465 96.7081 63.0963 96.7437 62.861 96.8285C62.6257 96.9132 62.4102 97.0452 62.2279 97.2165C62.0456 97.3877 61.9002 97.5945 61.8009 97.824C61.7016 98.0536 61.6504 98.3011 61.6504 98.5512C61.6504 98.8014 61.7016 99.0488 61.8009 99.2784C61.9002 99.508 62.0456 99.7148 62.2279 99.886C62.4102 100.057 62.6257 100.189 62.861 100.274C63.0963 100.359 63.3465 100.394 63.5961 100.379H68.6033C69.068 100.349 69.5042 100.144 69.8229 99.8046C70.1417 99.4651 70.319 99.0169 70.319 98.5512C70.319 98.0855 70.1417 97.6373 69.8229 97.2978C69.5042 96.9584 69.068 96.7531 68.6033 96.7238Z" fill="#A1B1BE"/>
<path d="M45.8322 100.379H48.5674C49.0321 100.349 49.4681 100.144 49.7868 99.8047C50.1056 99.4653 50.2831 99.0171 50.2831 98.5514C50.2831 98.0857 50.1056 97.6375 49.7868 97.298C49.4681 96.9585 49.0321 96.7533 48.5674 96.724H47.6556V95.8121C47.6264 95.3474 47.4211 94.9112 47.0817 94.5924C46.7422 94.2736 46.2942 94.0962 45.8286 94.0962C45.363 94.0962 44.9149 94.2736 44.5754 94.5924C44.236 94.9112 44.0307 95.3474 44.0015 95.8121V98.5478C44.0034 99.0328 44.1968 99.4974 44.5397 99.8404C44.8826 100.183 45.3472 100.377 45.8322 100.379Z" fill="#A1B1BE"/>
<path d="M47.6556 71.5389V66.6901C47.6264 66.2253 47.4211 65.7891 47.0817 65.4703C46.7422 65.1516 46.2942 64.9741 45.8286 64.9741C45.363 64.9741 44.9149 65.1516 44.5754 65.4703C44.236 65.7891 44.0307 66.2253 44.0015 66.6901V71.5389C44.0307 72.0037 44.236 72.4399 44.5754 72.7586C44.9149 73.0774 45.363 73.2549 45.8286 73.2549C46.2942 73.2549 46.7422 73.0774 47.0817 72.7586C47.4211 72.4399 47.6264 72.0037 47.6556 71.5389Z" fill="#A1B1BE"/>
<path d="M47.6556 61.841V56.9777C47.6264 56.5129 47.4211 56.0767 47.0817 55.7579C46.7422 55.4392 46.2942 55.2617 45.8286 55.2617C45.363 55.2617 44.9149 55.4392 44.5754 55.7579C44.236 56.0767 44.0307 56.5129 44.0015 56.9777V61.841C44.0307 62.3058 44.236 62.7419 44.5754 63.0607C44.9149 63.3795 45.363 63.5569 45.8286 63.5569C46.2942 63.5569 46.7422 63.3795 47.0817 63.0607C47.4211 62.7419 47.6264 62.3058 47.6556 61.841Z" fill="#A1B1BE"/>
<path d="M47.6556 81.2512V76.3951C47.6264 75.9303 47.4211 75.4942 47.0817 75.1754C46.7422 74.8566 46.2942 74.6792 45.8286 74.6792C45.363 74.6792 44.9149 74.8566 44.5754 75.1754C44.236 75.4942 44.0307 75.9303 44.0015 76.3951V81.2512C44.0307 81.716 44.236 82.1522 44.5754 82.4709C44.9149 82.7897 45.363 82.9672 45.8286 82.9672C46.2942 82.9672 46.7422 82.7897 47.0817 82.4709C47.4211 82.1522 47.6264 81.716 47.6556 81.2512Z" fill="#A1B1BE"/>
<path d="M47.6556 90.956V86.1072C47.6713 85.8575 47.6357 85.6073 47.551 85.372C47.4663 85.1366 47.3343 84.9211 47.1631 84.7388C46.9919 84.5564 46.7851 84.4111 46.5555 84.3117C46.326 84.2124 46.0787 84.1611 45.8286 84.1611C45.5785 84.1611 45.331 84.2124 45.1015 84.3117C44.8719 84.4111 44.6651 84.5564 44.4939 84.7388C44.3227 84.9211 44.1907 85.1366 44.106 85.372C44.0213 85.6073 43.9857 85.8575 44.0014 86.1072V90.956C43.9857 91.2057 44.0213 91.4559 44.106 91.6913C44.1907 91.9266 44.3227 92.1421 44.4939 92.3245C44.6651 92.5068 44.8719 92.6522 45.1015 92.7515C45.331 92.8508 45.5785 92.9021 45.8286 92.9021C46.0787 92.9021 46.326 92.8508 46.5555 92.7515C46.7851 92.6522 46.9919 92.5068 47.1631 92.3245C47.3343 92.1421 47.4663 91.9266 47.551 91.6913C47.6357 91.4559 47.6713 91.2057 47.6556 90.956Z" fill="#A1B1BE"/>
<path d="M47.6556 52.1291V51.2172H48.5674C49.0077 51.1614 49.4126 50.9468 49.7061 50.6137C49.9996 50.2806 50.1615 49.8519 50.1615 49.4079C50.1615 48.964 49.9996 48.5352 49.7061 48.2021C49.4126 47.869 49.0077 47.6545 48.5674 47.5986H45.8322C45.5921 47.5977 45.3543 47.6442 45.1323 47.7354C44.9102 47.8266 44.7082 47.9608 44.5382 48.1302C44.3681 48.2997 44.2331 48.5011 44.141 48.7228C44.0489 48.9446 44.0015 49.1823 44.0015 49.4224V52.158C44.0307 52.6228 44.236 53.059 44.5754 53.3777C44.9149 53.6965 45.363 53.874 45.8286 53.874C46.2942 53.874 46.7422 53.6965 47.0817 53.3777C47.4211 53.059 47.6264 52.6228 47.6556 52.158V52.1291Z" fill="#A1B1BE"/>
<path d="M73.6181 51.217H78.6181C79.0584 51.1612 79.4633 50.9466 79.7568 50.6135C80.0503 50.2804 80.2122 49.8517 80.2122 49.4077C80.2122 48.9638 80.0503 48.535 79.7568 48.2019C79.4633 47.8689 79.0584 47.6543 78.6181 47.5985H73.6109C73.3541 47.5659 73.0933 47.5884 72.8459 47.6644C72.5985 47.7405 72.3701 47.8683 72.1759 48.0395C71.9817 48.2106 71.8263 48.4212 71.7197 48.6571C71.6132 48.893 71.5581 49.1489 71.5581 49.4077C71.5581 49.6666 71.6132 49.9225 71.7197 50.1584C71.8263 50.3943 71.9817 50.6049 72.1759 50.776C72.3701 50.9472 72.5985 51.075 72.8459 51.151C73.0933 51.2271 73.3541 51.2496 73.6109 51.217H73.6181Z" fill="#A1B1BE"/>
<path d="M63.5962 51.217H68.6034C69.0438 51.1612 69.4486 50.9466 69.7421 50.6135C70.0356 50.2804 70.1976 49.8517 70.1976 49.4077C70.1976 48.9638 70.0356 48.535 69.7421 48.2019C69.4486 47.8689 69.0438 47.6543 68.6034 47.5985H63.5962C63.3395 47.5659 63.0787 47.5884 62.8313 47.6644C62.5839 47.7405 62.3556 47.8683 62.1614 48.0395C61.9672 48.2106 61.8116 48.4212 61.7051 48.6571C61.5986 48.893 61.5435 49.1489 61.5435 49.4077C61.5435 49.6666 61.5986 49.9225 61.7051 50.1584C61.8116 50.3943 61.9672 50.6049 62.1614 50.776C62.3556 50.9472 62.5839 51.075 62.8313 51.151C63.0787 51.2271 63.3395 51.2496 63.5962 51.217Z" fill="#A1B1BE"/>
<path d="M53.5743 51.217H58.5889C59.0293 51.1612 59.4342 50.9466 59.7277 50.6135C60.0211 50.2804 60.1831 49.8517 60.1831 49.4077C60.1831 48.9638 60.0211 48.535 59.7277 48.2019C59.4342 47.8689 59.0293 47.6543 58.5889 47.5985H53.5743C53.3176 47.5659 53.057 47.5884 52.8096 47.6644C52.5622 47.7405 52.3337 47.8683 52.1395 48.0395C51.9453 48.2106 51.7899 48.4212 51.6834 48.6571C51.5768 48.893 51.5217 49.1489 51.5217 49.4077C51.5217 49.6666 51.5768 49.9225 51.6834 50.1584C51.7899 50.3943 51.9453 50.6049 52.1395 50.776C52.3337 50.9472 52.5622 51.075 52.8096 51.151C53.057 51.2271 53.3176 51.2496 53.5743 51.217Z" fill="#A1B1BE"/>
<path d="M83.6324 51.217H88.647C89.0874 51.1612 89.4923 50.9466 89.7858 50.6135C90.0792 50.2804 90.2412 49.8517 90.2412 49.4077C90.2412 48.9638 90.0792 48.535 89.7858 48.2019C89.4923 47.8689 89.0874 47.6543 88.647 47.5985H83.6324C83.3757 47.5659 83.1149 47.5884 82.8675 47.6644C82.6201 47.7405 82.3918 47.8683 82.1976 48.0395C82.0034 48.2106 81.8478 48.4212 81.7413 48.6571C81.6348 48.893 81.5798 49.1489 81.5798 49.4077C81.5798 49.6666 81.6348 49.9225 81.7413 50.1584C81.8478 50.3943 82.0034 50.6049 82.1976 50.776C82.3918 50.9472 82.6201 51.075 82.8675 51.151C83.1149 51.2271 83.3757 51.2496 83.6324 51.217Z" fill="#A1B1BE"/>
<path d="M93.6541 51.2169H94.5369V52.1287C94.5369 52.6124 94.729 53.0763 95.0709 53.4183C95.4129 53.7603 95.8767 53.9525 96.3604 53.9525C96.6956 53.9526 97.0241 53.8592 97.3092 53.6828C97.5942 53.5064 97.8245 53.2539 97.9739 52.9538C98.1124 52.7005 98.1869 52.4173 98.1911 52.1287V49.3931C98.1911 49.153 98.1436 48.9152 98.0515 48.6935C97.9594 48.4718 97.8245 48.2704 97.6544 48.1009C97.4843 47.9315 97.2825 47.7973 97.0605 47.7061C96.8384 47.6149 96.6004 47.5684 96.3604 47.5694H93.6252C93.4155 47.5711 93.2076 47.6078 93.01 47.6779C92.6069 47.8236 92.2681 48.1067 92.0529 48.4775C91.8377 48.8483 91.7599 49.283 91.8333 49.7054C91.9067 50.1278 92.1266 50.5109 92.4543 50.7873C92.782 51.0637 93.1965 51.2158 93.6252 51.2169H93.6541Z" fill="#A1B1BE"/>
<path d="M94.5369 56.9777V61.841C94.5661 62.3058 94.7714 62.7419 95.1108 63.0607C95.4503 63.3795 95.8982 63.5569 96.3639 63.5569C96.8295 63.5569 97.2776 63.3795 97.6171 63.0607C97.9565 62.7419 98.1618 62.3058 98.191 61.841V56.9777C98.1618 56.5129 97.9565 56.0767 97.6171 55.7579C97.2776 55.4392 96.8295 55.2617 96.3639 55.2617C95.8982 55.2617 95.4503 55.4392 95.1108 55.7579C94.7714 56.0767 94.5661 56.5129 94.5369 56.9777Z" fill="#A1B1BE"/>
<path d="M94.5369 66.6901V71.5389C94.5661 72.0037 94.7714 72.4399 95.1108 72.7586C95.4503 73.0774 95.8982 73.2549 96.3639 73.2549C96.8295 73.2549 97.2776 73.0774 97.6171 72.7586C97.9565 72.4399 98.1618 72.0037 98.191 71.5389V66.6901C98.1618 66.2253 97.9565 65.7891 97.6171 65.4703C97.2776 65.1516 96.8295 64.9741 96.3639 64.9741C95.8982 64.9741 95.4503 65.1516 95.1108 65.4703C94.7714 65.7891 94.5661 66.2253 94.5369 66.6901Z" fill="#A1B1BE"/>
<path d="M94.5369 76.3951V76.6412H96.3603C96.8446 76.6412 97.3091 76.8331 97.6522 77.1749C97.9953 77.5167 98.1891 77.9806 98.191 78.4649V76.3951C98.1618 75.9303 97.9565 75.4942 97.6171 75.1754C97.2776 74.8566 96.8295 74.6792 96.3639 74.6792C95.8982 74.6792 95.4503 74.8566 95.1108 75.1754C94.7714 75.4942 94.5661 75.9303 94.5369 76.3951Z" fill="#A1B1BE"/>
<path d="M96.3893 76.6411H75.1592C74.6761 76.643 74.2134 76.8358 73.8718 77.1774C73.5303 77.519 73.3376 77.9818 73.3357 78.4649V98.5479C73.3357 99.0322 73.5276 99.4969 73.8694 99.84C74.2111 100.183 74.6749 100.377 75.1592 100.379H96.3893C96.8749 100.379 97.3404 100.186 97.6837 99.8426C98.027 99.4992 98.22 99.0335 98.22 98.5479V78.4649C98.2181 77.9805 98.0243 77.5167 97.6812 77.1748C97.3381 76.833 96.8736 76.6411 96.3893 76.6411ZM88.647 96.7241H76.9899V80.2959H94.5369V96.7241H88.618H88.647Z" fill="#A1B1BE"/>
</g>
<defs>
<clipPath id="clip0_324_2814">
<rect width="120" height="120" fill="white"/>
</clipPath>
</defs>
</svg>
