<svg width="18" height="18" viewBox="0 0 18 18" fill="none" xmlns="http://www.w3.org/2000/svg">
<path d="M11.5607 0.666016H6.44734C1.77734 0.666016 0.666504 1.77685 0.666504 6.43852V11.5518C0.666504 16.221 1.769 17.3327 6.439 17.3327H11.5523C16.2215 17.3327 17.3332 16.2302 17.3332 11.5602V6.44685C17.3332 1.77685 16.2307 0.666016 11.5607 0.666016ZM14.1215 12.5577H12.9057C12.4457 12.5577 12.3073 12.1852 11.4823 11.3602C10.7623 10.666 10.4582 10.5793 10.2757 10.5793C10.024 10.5793 9.95484 10.6485 9.95484 10.996V12.0893C9.95484 12.3852 9.859 12.5585 9.0865 12.5585C8.33679 12.5081 7.60977 12.2804 6.96534 11.894C6.3209 11.5076 5.77748 10.9736 5.37984 10.336C4.43581 9.16101 3.77896 7.78196 3.4615 6.30852C3.4615 6.12602 3.53067 5.96102 3.87817 5.96102H5.09317C5.40567 5.96102 5.51817 6.10018 5.64067 6.42102C6.23067 8.15768 7.23734 9.66768 7.64567 9.66768C7.80234 9.66768 7.87067 9.59852 7.87067 9.20768V7.41935C7.819 6.60352 7.38567 6.53435 7.38567 6.23935C7.39124 6.16154 7.42689 6.08896 7.48508 6.037C7.54326 5.98504 7.6194 5.95778 7.69734 5.96102H9.60734C9.86817 5.96102 9.95484 6.09102 9.95484 6.40352V8.81685C9.95484 9.07768 10.0673 9.16435 10.1457 9.16435C10.3023 9.16435 10.4232 9.07768 10.7098 8.79102C11.3256 8.04014 11.8286 7.20358 12.2032 6.30768C12.2415 6.20007 12.3139 6.10794 12.4094 6.04534C12.505 5.98275 12.6184 5.95314 12.7323 5.96102H13.9482C14.3123 5.96102 14.3898 6.14352 14.3123 6.40352C13.8702 7.39387 13.3232 8.33397 12.6807 9.20768C12.5498 9.40768 12.4973 9.51185 12.6807 9.74602C12.8015 9.92852 13.2273 10.2843 13.514 10.6227C13.9306 11.0382 14.2765 11.519 14.5382 12.046C14.6423 12.3843 14.4682 12.5577 14.1215 12.5577Z" fill="#101927"/>
</svg>
