<svg width="18" height="18" viewBox="0 0 18 18" fill="none" xmlns="http://www.w3.org/2000/svg">
<path d="M9.00083 0.666016C13.6033 0.666016 17.3342 4.39685 17.3342 8.99935C17.3342 13.6018 13.6033 17.3327 9.00083 17.3327C7.52814 17.3351 6.08137 16.9453 4.80916 16.2035L0.670826 17.3327L1.79749 13.1927C1.05507 11.9201 0.665032 10.4727 0.667492 8.99935C0.667492 4.39685 4.39833 0.666016 9.00083 0.666016ZM6.16083 5.08268L5.99416 5.08935C5.88626 5.09592 5.78081 5.12427 5.68416 5.17268C5.59376 5.22387 5.51124 5.28787 5.43916 5.36268C5.33916 5.45685 5.28249 5.53852 5.22166 5.61768C4.91343 6.01843 4.74747 6.51044 4.74999 7.01602C4.75166 7.42435 4.85833 7.82185 5.02499 8.19352C5.36583 8.94518 5.92666 9.74101 6.66666 10.4785C6.84499 10.656 7.01999 10.8343 7.20833 11.0002C8.12782 11.8097 9.22354 12.3935 10.4083 12.7052L10.8817 12.7777C11.0358 12.786 11.19 12.7743 11.345 12.7668C11.5877 12.7543 11.8247 12.6886 12.0392 12.5743C12.1483 12.5181 12.2548 12.457 12.3583 12.391C12.3583 12.391 12.3942 12.3677 12.4625 12.316C12.575 12.2327 12.6442 12.1735 12.7375 12.076C12.8067 12.0043 12.8667 11.9202 12.9125 11.8243C12.9775 11.6885 13.0425 11.4293 13.0692 11.2135C13.0892 11.0485 13.0833 10.9585 13.0808 10.9027C13.0775 10.8135 13.0033 10.721 12.9225 10.6818L12.4375 10.4643C12.4375 10.4643 11.7125 10.1485 11.2692 9.94685C11.2228 9.92659 11.1731 9.91501 11.1225 9.91268C11.0655 9.90683 11.0079 9.91324 10.9535 9.9315C10.8992 9.94975 10.8494 9.97942 10.8075 10.0185C10.8033 10.0168 10.7475 10.0643 10.145 10.7943C10.1104 10.8408 10.0628 10.8759 10.0082 10.8952C9.95354 10.9145 9.89442 10.9171 9.83832 10.9027C9.78404 10.8881 9.73085 10.8697 9.67916 10.8477C9.57582 10.8043 9.53999 10.7877 9.46916 10.7577C8.99088 10.549 8.54806 10.267 8.15666 9.92185C8.05166 9.83018 7.95416 9.73018 7.85416 9.63352C7.52631 9.31954 7.24059 8.96435 7.00416 8.57685L6.95499 8.49768C6.91968 8.44449 6.89113 8.3871 6.86999 8.32685C6.83833 8.20435 6.92083 8.10602 6.92083 8.10602C6.92083 8.10602 7.12333 7.88435 7.21749 7.76435C7.30916 7.64768 7.38666 7.53435 7.43666 7.45352C7.53499 7.29518 7.56583 7.13268 7.51416 7.00685C7.28083 6.43685 7.03916 5.86935 6.79083 5.30602C6.74166 5.19435 6.59583 5.11435 6.46333 5.09852C6.41833 5.09352 6.37332 5.08852 6.32832 5.08518C6.21641 5.07962 6.10427 5.08074 5.99249 5.08852L6.15999 5.08185L6.16083 5.08268Z" fill="#101927"/>
</svg>
